<?xml version='1.0' encoding='utf-8'?>
<svg xmlns="http://www.w3.org/2000/svg" enable-background="new 566.618 618.167 1240.267 1745.906" version="1.1" viewBox="566.618 618.167 1240.267 1745.906">
	<path d="m1751.2 983.28c-3.517-1.98-7.832-1.602-11.845-1.166-6.792 0.737-13.583 1.475-20.374 2.212-48.51 5.266-97.02 10.533-145.53 15.799-24.255 2.633-48.51 5.266-72.765 7.899-12.128 1.317-24.255 2.633-36.383 3.95-6.016 0.653-12.252 0.898-18.204 1.974-4.671 0.844-9.639 2.328-14.464 2.221-3.187-0.053-6.228 1.068-9.392 1.174-2.096 0.059-4.144 0.47-6.187 0.845-2.964 0.581-5.999 0.323-8.987 0.282-1.579-6.721-2.26-13.612-3.769-20.345-0.833-6.322-2.101-12.573-3.498-18.79-1.368-5.987-1.961-12.116-3.364-18.097-4.843 0.939-9.228 3.305-13.953 4.649-9.55 3.287-19.33 5.852-28.821 9.304-3.452 1.409-7.197 1.931-10.607 3.452-5.929 2.589-12.256 4.009-18.255 6.392-6.269 1.802-12.274 4.379-18.561 6.116-2.501 0.728-4.96 2.131-7.613 1.937-3.234-3.827-4.062-8.981-5.893-13.518-3.082-6.897-5.917-13.906-9.263-20.686-0.405-1.092-1.291-2.277-0.769-3.463 2.923-2.225 6.51-3.305 9.638-5.189 6.41-3.358 12.661-7.003 19.148-10.214 5.124-3.117 10.76-5.218 16.025-8.065 7.872-3.698 15.274-8.306 23.128-12.027 6.821-4.027 14.452-6.568 21.014-11.065-0.998-2.084-1.914-4.22-3.281-6.093-1.984-2.8-3.405-5.94-5.383-8.735-2.559-3.81-4.209-8.13-6.745-11.951-1.45-2.624-3.593-4.784-4.925-7.478-2.794-5.858-6.85-11.006-9.603-16.882-3.651-5.688-7.384-11.347-10.578-17.31-3.264 0.076-5.629 2.536-8.112 4.314-3.076 2.172-5.823 4.761-8.77 7.091-5.359 4.473-11.053 8.517-16.553 12.808-4.849 4.209-10.272 7.684-15.226 11.763-5.547 4.837-11.253 9.498-17.129 13.923-5.113 2.964-8.881 7.695-13.806 10.9-1.89 1.28-4.355 0.775-6.081-0.511-3.316-3.182-5.852-7.109-9.403-10.044-3.686-3.363-6.88-7.214-10.589-10.554-1.849-1.884-3.892-3.598-5.471-5.717-0.886-1.432 0.64-2.8 1.356-3.945 3.029-3.604 6.281-7.02 9.374-10.572 4.303-5.259 9.134-10.055 13.788-14.998 3.223-4.344 7.572-7.672 10.9-11.928 1.585-2.137 3.857-3.604 5.524-5.664 3.927-5.048 8.934-9.11 12.932-14.1 2.923-2.941 5.289-6.433 8.57-9.004 1.473-1.473 2.9-3.011 4.297-4.567 0.845-0.699 0.493-2.154-0.464-2.559-8.141-4.995-15.338-11.335-23.08-16.9-4.59-3.633-9.345-7.044-13.929-10.671-4.467-4.003-9.562-7.214-14.041-11.2-3.88-2.929-7.478-6.345-11.781-8.641-3.563 5.054-6.48 10.513-9.756 15.749-2.894 4.056-4.896 8.652-7.789 12.708-2.178 3.346-4.479 6.633-6.234 10.231-1.802 2.589-3.481 5.254-4.919 8.059-5.013 7.525-9.222 15.573-14.593 22.863-1.685 2.33-2.688 5.072-4.326 7.437-1.773 2.559-3.076 5.436-5.042 7.866-0.781 1.256-3.011 0.411-3.404 1.919 0.634 1.051 1.385 2.037 2.031 3.088-3.446-0.387-6.422-2.266-9.597-3.487-1.544-0.704-3.639-1.303-3.956-3.24-0.499-2.471-0.534-5.013-0.481-7.519-2.407 0.053-4.179 1.867-6.21 2.888-2.823-0.869-5.565-2.078-8.288-3.217-0.798-2.254-0.663-4.725-0.757-7.091-1.362-0.053-2.366 0.792-3.27 1.691-1.333-0.622-2.688-1.221-3.892-2.06-0.54-2.7 0.986-5.23 1.955-7.648 2.043-5.218 3.974-10.484 6.152-15.649 0.734-2.301 1.385-4.649 2.553-6.786 2.231-4.244 3.27-8.981 5.582-13.184 1.338-4.631 3.839-8.799 5.512-13.307 2.741-5.641 4.89-11.529 7.308-17.31 2.283-6.31 5.747-12.145 7.461-18.666 0.106-0.869-0.088-1.737-0.199-2.589-15.338-2.231-29.984-7.508-44.788-11.904-8.065-2.982-16.536-4.661-24.577-7.695-2.477-0.822-4.943-1.749-7.537-2.096-1.556 8.271-3.798 16.406-4.89 24.759-2.606 9.797-3.927 19.887-6.604 29.672-0.546 4.179-2.137 8.136-2.565 12.339-1.28 4.285-1.679 8.752-2.712 13.102-1.509 6.263-2.354 12.656-4.033 18.878-3.933 0.211-7.801-0.616-11.622-1.421-3.886-0.276-7.69-1.28-11.593-1.332-3.593 0.088-7.003-1.268-10.589-1.239-1.45 0.211-1.996-1.244-2.6-2.236-1.286-0.07-2.577-0.123-3.857-0.17 0.024-5.089-0.276-10.202 0.47-15.25 0.1-9.204 0.17-18.414 1.074-27.583 0.153-3.886 0.517-7.772 0.282-11.663-0.346-8.283 1.802-16.418 1.679-24.695-0.059-3.358 0.892-6.627 0.833-9.991-0.047-4.25 0.117-8.494 0.252-12.744-3.71 0.035-7.232 1.385-10.965 1.338-3.968 1.438-8.247 0.464-12.28 1.52-3.322 0.851-6.78 0.346-10.131 0.922-6.709 1.344-13.612 0.628-20.369 1.55-4.766 0.857-9.627 0.035-14.411 0.675-3.328 0.481-7.396-0.716-10.067 1.872-1.55 2.906-1.843 6.31-1.632 9.55-0.082 3.088 0.411 6.134 0.945 9.157 0.816 6.099 1.567 12.204 2.278 18.32 1.614 6.915 2.107 14 3.093 21.02 1.379 6.903 1.573 13.994 3.099 20.873 0.54 6.809 2.859 13.466 2.407 20.339-1.779 0.622-3.563 1.262-5.4 1.661-6.158 0.963-12.18 2.589-18.179 4.232-3.622 0.969-7.208 2.454-11.018 2.313-1.62-0.1-3.293 0.164-4.866-0.247-0.833-1.45-1.291-3.076-1.843-4.643-3.962-11.258-7.772-22.576-11.223-34.004-1.826-4.837-2.735-9.955-4.491-14.822-2.025-5.618-3.815-11.317-5.289-17.105-2.178-7.12-4.532-14.188-6.809-21.273-0.505-1.303-0.423-3.827-2.401-3.551-2.706 1.192-5.13 2.953-7.825 4.179-7.513 4.896-15.755 8.5-23.744 12.538-5.999 3.223-12.333 5.729-18.543 8.506-7.296 3.475-14.839 6.398-22.218 9.685 1.35 3.358 3.375 6.375 5.007 9.597 1.514 2.976 2.782 6.081 4.579 8.911 3.029 4.901 5.224 10.266 8.335 15.121 2.818 5.406 5.365 10.971 8.47 16.23 2.319 3.199 3.334 7.079 5.312 10.466 3.187 5.811 5.864 11.91 9.55 17.44 1.726 3.956 4.256 7.56 5.494 11.728-0.74 0.575-1.473 1.156-2.184 1.755 0.927 0.258 1.872 0.499 2.812 0.775-0.886 2.113-3 3.105-4.696 4.438-1.919 1.473-3.968 2.841-6.24 3.692-1.867-0.452-3.082-2.066-4.309-3.405-0.511 0.358-1.01 0.722-1.509 1.092 0.652 1.808 2.078 3.61 1.602 5.618-3.017 1.955-5.97 4.173-9.31 5.535-2.008-0.27-3.581-1.925-5.348-2.853-0.329 1.057-0.569 2.143-0.763 3.234-0.88 0.446-1.749 0.922-2.606 1.415-2.548-1.79-3.986-4.62-6.075-6.85-2.031-2.154-3.739-4.573-5.365-7.038-1.362-2.101-3.317-3.716-4.778-5.735-5.541-7.578-11.27-15.021-16.624-22.734-2.923-3.763-5.306-7.924-8.412-11.552-1.808-2.154-2.988-4.743-4.79-6.903-5.16-6.146-8.975-13.319-14.563-19.118-1.215-0.563-1.884 0.792-2.583 1.526-3.27 4.491-6.674 8.917-10.666 12.797-3.099 3.545-6.381 6.927-9.421 10.519-6.909 7.578-14.757 14.217-22.006 21.455-4.878 4.943-10.396 9.233-14.957 14.487-0.417 0.757 0.217 1.35 0.74 1.826 4.009 3.622 7.971 7.308 12.139 10.76 4.702 4.097 9.134 8.488 13.847 12.573 8.2 7.062 16.16 14.399 24.454 21.361 4.672 3.927 8.969 8.288 13.783 12.051 2.988 2.313 5.729 4.943 8.071 7.913-1.708 2.019-3.182 4.232-5.036 6.117-3.193 3.334-5.529 7.343-8.511 10.853-2.876 3.211-4.896 7.091-8.024 10.096-0.223-0.951-0.434-1.896-0.646-2.835-1.174 0.98-2.325 1.99-3.475 3.005-1.385-0.493-2.759-1.051-3.98-1.878-4.514-3.117-9.392-5.694-13.73-9.081-3.399-2.618-7.302-4.438-10.818-6.874-8.142-5.758-16.307-11.499-24.642-16.988-4.854-3.904-10.425-6.733-15.479-10.349-5.5-3.358-10.501-7.572-16.383-10.266-0.528 1.89-0.939 3.821-1.626 5.67-2.354 5.553-4.062 11.37-6.78 16.77-2.219 4.191-3.363 8.846-5.629 13.031-4.708 10.619-10.178 20.879-15.004 31.439-2.366 4.643-5.623 8.981-6.844 14.105 8.74 2.747 16.905 6.997 25.564 9.955 12.151 4.884 24.137 10.208 36.517 14.499 5.447 1.896 10.695 4.314 16.136 6.228 4.849 1.931 9.914 3.281 14.645 5.529-1.285 5.747-4.074 11.053-5.312 16.817-0.493 2.377-1.409 4.643-1.937 7.015-0.364 1.608-0.434 3.281-0.963 4.854-0.294 1.579-2.454 1.368-3.14 2.671-0.487 0.798-0.822 1.679-1.192 2.542-2.694 0.07-5.201-1.016-7.813-1.497-12.479-2.982-24.953-6.034-37.497-8.746-5.301-1.479-10.601-2.97-15.996-4.086-4.708-1.197-9.398-2.512-14.164-3.451-7.66-1.855-15.197-4.256-23.028-5.289-0.387 3.17-0.869 6.328-0.581 9.533-0.217 6.257-0.153 12.526-0.563 18.778-0.857 5.042-0.745 10.178-1.18 15.268-1.127 7.836-1.421 15.784-2.87 23.585-0.282 2.254-0.223 4.549-0.775 6.774-0.769 3.029-0.317 6.251-1.374 9.233-0.652 1.967-0.505 4.068-0.34 6.105 12.168 0.176 24.325 0.787 36.499 0.669 3.939 0.018 7.901-0.223 11.804 0.47 6.48 0.352 12.99-0.035 19.471 0.358 9.744 0.699 19.517 0.117 29.267 0.423 2.571-0.223 4.15 2.054 5.753 3.669 0.634 2.97 0.522 6.046 0.634 9.069-1.902 1.08-3.821 2.131-5.524 3.516 2.025 1.01 4.074 1.99 6.028 3.14 0.293 3.152 0.528 6.31 0.417 9.48-2.107 0.687-3.716 2.231-5.124 3.868 1.027 0.816 2.025 1.708 2.636 2.9-2.994 0.757-6.128 0.452-9.139 1.092-3.88 0.851-7.866 1.004-11.763 1.749-8.605 0.44-17.058 2.506-25.693 2.624-5.06 0.605-10.114 1.198-15.185 1.708-3.675 0.71-7.461 0.364-11.112 1.203-3.099 0.698-6.322 0.358-9.409 1.139-3.698 0.992-7.584 0.129-11.294 1.057-2.184 0.499-4.414 0.722-6.657 0.798 0.264 2.894 1.55 5.524 2.46 8.247 2.272 7.29 4.32 14.657 6.087 22.089 1.72 5.177 2.348 10.63 4.097 15.802 1.82 7.273 3.24 14.634 5.06 21.906 1.297 3.727 1.462 7.719 2.688 11.47 1.057 3.17 0.91 6.615 2.16 9.738 12.744-3.463 25.035-8.347 37.562-12.491 4.32-1.585 8.729-2.911 13.031-4.543 8.4-2.524 16.541-5.805 24.818-8.688 6.604-2.025 12.937-4.825 19.588-6.721 2.043 3.575 2.712 7.713 4.567 11.376 1.919 3.716 2.823 7.872 4.995 11.464 1.708 2.594 1.303 5.782 1.685 8.717-5.125 3.346-10.63 6.087-16.219 8.564-7.191 3.622-14.464 7.079-21.742 10.531-5.97 3.14-12.092 5.975-18.185 8.864-7.05 3.757-14.17 7.378-21.314 10.953-4.438 1.937-8.734 4.173-13.014 6.422-0.082 0.153-0.252 0.464-0.34 0.622 2.283 4.526 6.087 8.018 8.488 12.474 2.054 2.694 3.763 5.617 5.67 8.411 2.066 2.524 3.586 5.418 5.248 8.212 1.403 2.46 3.434 4.479 4.866 6.915 4.285 7.015 8.758 13.906 13.295 20.756 1.696 2.659 3.07 5.512 4.807 8.147 2.677 3.757 4.696 7.913 7.285 11.734 4.467-3.299 8.911-6.639 13.207-10.155 3.193-2.894 6.662-5.453 10.026-8.136 9.785-7.155 18.936-15.097 28.287-22.793 4.608-3.369 8.999-7.021 13.354-10.713 3.493-2.536 6.745-5.383 10.178-8.001 1.591-1.168 3-2.706 4.901-3.346 1.52 0.217 3.035 0.687 4.408 1.397 1.532 1.198 2.571 2.882 3.886 4.309 3.011 3.246 6.075 6.451 8.981 9.809 1.919 2.207 4.303 4.021 5.958 6.457 0.622 1.004-0.164 2.049-0.828 2.794-3.575 3.868-6.803 8.059-10.701 11.628-7.367 7.877-14.722 15.767-22.042 23.685-5.177 4.802-10.014 9.961-15.015 14.951-2.976 2.9-5.453 6.257-8.494 9.098-1.831 1.685-3.534 3.51-5.13 5.418-2.055 2.459-4.643 4.438-6.445 7.108 3.886 2.906 7.678 5.935 11.799 8.511 12.638 9.633 24.671 20.057 37.538 29.397 4.42 3.158 8.453 6.797 12.773 10.09 3.557 2.618 6.592 5.999 10.648 7.895 2.718-5.054 6.152-9.668 8.934-14.687 2.407-4.532 5.248-8.811 7.936-13.172 1.209-2.6 3.299-4.637 4.608-7.167 1.585-2.894 3.023-5.882 4.978-8.552 1.82-2.383 2.953-5.183 4.614-7.666 3.27-5.019 6.433-10.096 9.409-15.297 4.461-6.392 7.549-13.689 12.509-19.723 1.004-0.487 2.131-0.587 3.211-0.816 0.082-0.91 0.158-1.82 0.264-2.718 2.636 0.845 6.504 1.35 7.202 4.561 0.792 2.6 1.115 5.307 1.632 7.966 1.878-0.945 3.651-2.096 5.576-2.947 1.08-0.476 2.225 0.111 3.246 0.487 2.008 0.88 3.933 1.931 5.905 2.9-0.012 2.09 0.029 4.191 0.153 6.287 0.781-0.041 1.567-0.082 2.36-0.112-0.669 4.661-3.158 8.74-5.124 12.931-3.305 6.439-5.753 13.266-8.916 19.764-1.556 3.686-3.516 7.179-4.931 10.924-2.559 4.825-4.901 9.768-6.891 14.863-0.816 2.219-2.36 4.08-3.117 6.334-1.356 3.915-3.581 7.443-5.072 11.3-2.055 4.989-4.843 9.709-6.146 14.98 3.093 1.855 6.68 2.512 10.032 3.751 4.972 1.808 10.184 2.865 15.103 4.831 11.417 3.716 22.558 8.241 34.063 11.705 4.778 1.327 9.357 3.24 14.076 4.755 4.702 1.573 9.357 3.481 14.305 4.144 1.338-4.015 2.295-8.147 2.718-12.362 1.673-6.034 2.371-12.28 3.845-18.355 1.462-5.94 2.442-11.986 3.786-17.95 0.963-5.788 1.919-11.581 3.328-17.275 2.577-10.507 3.54-21.349 6.293-31.815 0.475-2.09 3.011-2.06 4.714-2.33 1.708 0.018 4.138-0.458 5.101 1.391-0.423 6.41-1.855 12.708-2.236 19.13-0.534 3.71-1.08 7.419-1.215 11.176-0.763 5.06-1.503 10.143-1.784 15.268-0.335 3.557-0.294 7.167-1.051 10.683-0.64 3.07-0.311 6.269-1.162 9.316-0.792 2.982-0.323 6.111-0.892 9.128-0.61 2.941-0.376 5.982-0.986 8.928-0.804 3.833-0.605 7.795-1.379 11.64-0.475 2.178-0.786 4.402-0.775 6.645 0.07 3.088-1.039 6.058-0.998 9.151 0.047 3.675-1.438 7.15-1.426 10.83 0.053 1.479-0.493 2.853-1.233 4.115-3.399 0.047-6.821-0.229-10.19 0.305-3.205 0.47-6.533-0.158-9.656 0.88-5.817 1.655-11.916 1.532-17.803 2.741-8.875 0.892-17.639 2.565-26.526 3.369-0.129 1.063-0.27 2.131-0.399 3.211 2.213 0.041 4.426 0.047 6.633 0.182-1.344 0.922-2.823 1.614-4.174 2.524-1.18 1.808 0.493 3.727 2.107 4.532 5.177 2.776 10.137 5.94 15.279 8.793 3.375 1.374 7.038 2.225 10.701 2.219 3.358-0.27 6.651 0.493 9.985 0.698 4.714-0.129 9.386 0.675 14.105 0.47 2.495-0.053 5.095-0.223 7.408 0.916-0.346 5.524-0.951 11.024-1.702 16.506-3.886 2.917-7.496 6.257-10.472 10.114-1.943 2.23-5.441 2.09-7.314 4.408-0.405 3.24-0.158 6.568-1.01 9.773-0.27 7.044-1.573 13.97-2.442 20.956-0.188 7.549-2.6 14.857-2.653 22.429 0.07 4.162-1.209 8.189-1.256 12.35-1.045 5.993-2.295 12.057-1.878 18.185 0.106 2.283 1.649 4.461 3.839 5.195 1.743 0.387 3.68 0.059 5.025-1.18 3.792-2.776 3.997-8.106 7.555-11.118-0.029 3.733 0.129 7.484-0.393 11.2-0.511 3.909-1.25 7.819-1.162 11.787 0.065 2.571-0.875 5.025-0.998 7.59-0.176 2.9-1.039 5.776-2.53 8.265-1.538 0.816-3.217 1.315-4.849 1.914 0.293 2.401 3.369 2.571 5.148 3.551 0.041 2.066 0.059 4.144-0.293 6.204-0.828 4.807-0.91 9.703-1.368 14.557-1.051 5.623-1.25 11.37-2.348 16.988-0.247 1.121-1.567 1.55-2.594 1.438-2.189-0.182-4.379-0.217-6.568-0.211-2.043 0.129-3.246-1.831-4.866-2.712-0.88-0.176-1.779-0.164-2.659-0.182-1.462 3.117-1.737 6.545-2.172 9.914-0.91 3.545-0.863 7.232-1.514 10.824-0.522 3.516-0.305 7.12-1.162 10.595-0.869 6.592-1.42 13.231-2.518 19.793-1.015 9.474-1.802 18.977-3.622 28.346-0.188 3.334-1.303 7.343 1.227 10.096 1.385 1.949 3.686 3.24 6.105 3.211 3.111-0.012 6.204-0.458 9.321-0.44 0.252 6.839-0.869 13.618-1.743 20.38-1.356 7.396-1.649 14.927-2.982 22.329-0.734 5.67-1.603 11.329-1.779 17.058-0.634 4.326-0.933 8.693-1.708 13.002-0.569 4.038-0.464 8.247-1.843 12.133-2.947 1.033-6.146 0.546-9.198 0.552-2.037 0.024-3.246-1.843-4.884-2.706-0.945-0.129-1.896-0.1-2.835-0.088-0.704 4.872-1.274 9.768-1.796 14.669-0.64 2.906-1.074 5.846-1.162 8.834-1.385 9.603-2.8 19.212-4.555 28.751-0.317 3.34-1.274 6.598-1.315 9.973-0.869 7.05-2.665 14.023-2.389 21.179-0.393 4.144 2.911 8.382 7.12 8.664 3.322-0.364 6.662-0.628 10.008-0.464-0.305 3.968-0.129 8.001-1.004 11.916-1.015 5.741-1.544 11.552-1.784 17.381-0.393 3.498-1.062 6.962-1.391 10.484-0.957 3.604-0.452 7.396-1.35 11.024-1.632 8.048-2.125 16.248-3.176 24.384-0.704 3.046-0.927 6.181-1.303 9.286-3.44 0.117-6.932 0.446-10.343-0.147-1.174-0.881-2.078-2.054-3.228-2.941-0.875-0.094-1.737 0.088-2.589 0.211-1.673 5.864-1.626 12.016-2.207 18.044-2.812 0.734-5.676 1.438-8.605 1.309-3.399-0.153-6.721 0.628-10.061 1.068-5.846 0.481-11.922-0.798-17.586 1.209-2.09 0.458-3.27 2.577-3.804 4.49-0.282 2.383-0.44 5.477 1.978 6.868 2.43 2.313 5.946 1.579 8.981 1.538 3.193-0.035 6.146-1.491 9.321-1.655 5.917-0.522 11.793-1.456 17.715-1.837-0.018 3.71-0.804 7.361-1.057 11.071-0.904 3.545-0.587 7.243-1.344 10.818-0.546 3.152-0.452 6.381-1.062 9.533-0.751 3.804-0.452 7.737-1.391 11.523-0.828 4.408-0.769 8.963-0.464 13.43 0.763 2.929 3.616 5.618 6.821 5.154 3.111-0.464 6.269-0.634 9.404-0.258 0.704 3.305-0.599 6.527-0.628 9.832-0.035 3.939-1.274 7.748-1.362 11.693 0 3.005-1.573 5.782-1.286 8.817 0.352 4.203-1.057 8.271-1.039 12.462-0.211 4.091-1.262 8.106-1.274 12.221 0.023 1.902-0.687 3.704-0.986 5.576-0.822 5.23-0.698 10.578-1.784 15.772-0.464 2.418-0.393 4.913-0.751 7.361-0.117 0.74-0.358 1.908-1.374 1.837-3.575 0.106-7.29 0.751-10.765-0.311-1.514-1.344-3.181-2.583-5.33-2.037-1.309 3.528-1.262 7.296-1.702 10.977-0.781 2.894-0.828 5.893-1.08 8.864-0.528 3.129-0.857 6.292-1.098 9.468h1.972c-0.035-4.62 0.757-9.157 1.45-13.688 0.07-4.555 1.086-8.999 1.526-13.507 2.055 0.898 3.898 2.553 6.269 2.507 3.105 0.082 6.216-0.147 9.327 6e-3 0.164 4.989-1.004 9.891-1.104 14.874-0.07 3.352-1.632 6.439-1.732 9.809h15.937c1.033-7.525 1.884-15.068 2.7-22.617 0.147-1.468 0.564-3.029 2.013-3.692 2.612-1.409 4.25-3.88 6.064-6.122-2.119 10.806-3.904 21.689-6.369 32.431h1.749c0.875-2.624 1.209-5.365 1.632-8.071 1.162-5.864 2.747-11.64 3.457-17.586 2.712-10.137 4.121-20.551 6.216-30.823 0.834-6.046 2.049-12.033 3.61-17.933 0.657-3.868 1.233-7.742 2.107-11.564 1.514-6.404 1.831-13.02 3.528-19.377 1.127-4.085 1.297-8.353 2.401-12.427 0.393 0.199 1.168 0.599 1.561 0.798 1.585 5.448-0.282 11.088-0.352 16.618-0.029 7.449-1.397 14.798-1.573 22.247 0.029 3.769-1.021 7.449-0.863 11.235-0.335 4.232-0.194 8.5-0.61 12.732-0.734 2.653-0.599 5.418-0.834 8.147-1.661 6.504-0.305 13.313-1.655 19.887-0.998 4.115-0.176 8.382-0.91 12.532-1.004 4.455-0.552 9.051-0.716 13.583h17.809c0.094-4.267 0.282-8.529 0.851-12.755 0.769-4.972 0.429-10.055 1.374-15.004 0.628-6.175 0.299-12.444 1.432-18.566 0.581-3.986 0.241-8.036 0.88-12.004 0.605-4.109 0.382-8.294 1.156-12.374 0.693-3.745-0.117-7.607 0.787-11.323 0.886 0.816 1.743 1.731 2.236 2.876 2.401 5.5 5.471 10.677 7.995 16.13 2.753 6.14 5.706 12.198 8.734 18.215 2.389 4.039 4.039 8.441 6.21 12.597 3.363 6.293 6.263 12.82 9.691 19.083 2.037 4.438 3.992 8.928 6.521 13.125h2.348c-2.512-4.361-4.772-8.858-6.88-13.419-5.647-11.006-10.519-22.417-16.688-33.147-3.586-8.541-8.517-16.454-11.945-25.059-2.477-4.948-5.113-9.826-7.508-14.792-0.558-7.795 1.397-15.52 1.338-23.315 0.493-7.291 1.538-14.54 1.597-21.865 1.685 1.098 2.841 2.759 3.669 4.579 3.24 6.856 7.015 13.448 10.202 20.333 1.444 3.499 3.727 6.563 5.201 10.05 1.949 3.874 4.402 7.49 5.987 11.558 3.434 6.839 7.402 13.389 10.854 20.222 2.248 5.212 5.265 10.032 7.895 15.056 2.254 3.581 3.469 7.684 5.67 11.3 4.314 7.596 8.282 15.367 12.139 23.204 0.663 1.485 1.473 3.27 0.616 4.872-1.655 3.516-4.003 6.698-5.23 10.425h1.972c1.773-3.14 3.14-6.492 5.072-9.539 0.581 0.54 1.227 1.074 1.597 1.837 1.362 2.577 2.859 5.089 4.185 7.701h2.242c-1.72-2.841-2.87-5.987-4.796-8.705-0.716-1.497-2.319-3.24-1.209-4.901 3.933-7.097 7.584-14.346 11.376-21.513 3.123-5.412 5.424-11.247 8.682-16.588 2.254-4.538 4.514-9.069 7.05-13.454 2.841-6.058 6.416-11.728 9.222-17.798 2.735-4.784 5.301-9.656 7.719-14.598 2.319-4.291 4.743-8.529 7.173-12.755 2.594-5.682 5.946-10.965 8.646-16.588 2.641-5.101 5.025-10.361 8.1-15.209 0.511 1.403 1.039 2.823 1.303 4.32 0.569 7.197 0.816 14.428 1.802 21.595 0.687 6.075 0.487 12.221 1.156 18.302 0.816 3.903 0.153 7.936 0.98 11.845 0.399 2.994 1.303 6.334-0.317 9.134-2.395 4.361-4.432 8.899-6.527 13.413-2.765 4.972-5.201 10.114-7.625 15.262-7.866 16.066-15.115 32.414-23.462 48.239h2.225c2.788-6.175 6.34-11.969 9.028-18.185 5.735-11.875 11.341-23.814 17.164-35.642 2.688-4.89 5.142-9.92 7.208-15.103 0.786-2.008 2.101-3.751 3.639-5.236 0.499 3.358 0.34 6.768 0.71 10.143 1.28 6.193 0.828 12.579 0.511 18.854 0.106 2.377 1.397 4.526 1.509 6.927 0.176 3.188 1.256 6.246 1.379 9.445 0.2 3.54 0.945 7.038 0.745 10.607-0.276 6.104 1.174 12.098 1.391 18.191h18.091c0.094-2.835-0.857-6.204 1.591-8.306 0.205 2.765 0.27 5.617-0.575 8.306h8.142c1.421-3.651 2.982-7.408 3.011-11.37-0.875 0.581-1.685 1.262-2.477 1.966 0.522-3.44 2.025-6.633 2.471-10.084 0.076-0.945 0.828-2.935 1.996-1.878 1.344 2.448-0.828 4.96-1.379 7.361 0.834-0.399 1.667-0.81 2.501-1.203 1.145 2.729 0.452 5.7 0.769 8.558 1.186 2.043 1.884 4.297 2.219 6.651h16.946c-0.376-3.897-0.74-7.795-1.297-11.658-0.863-3.146-0.376-6.439-1.033-9.597-0.687-3.434-1.268-6.903-1.256-10.407 0.065-6.933-1.79-13.665-2.401-20.533-0.792-5.706-1.661-11.4-2.101-17.14-0.241-3.704-1.109-7.332-1.239-11.03-0.07-4.531-1.115-8.958-1.321-13.471-0.106-3.223-1.174-6.299-1.403-9.498-0.158-2.882-0.552-5.747-0.693-8.617-0.123-3.428-1.45-6.686-1.397-10.12-0.023-3.862-1.092-7.613-1.303-11.452-0.112-2.865-0.693-5.7-0.587-8.564-0.605-3.733 4.355-5.125 4.402-8.717-0.64-1.033-1.702-1.667-2.6-2.418-2.553-1.667-2.166-5.142-2.823-7.754-0.652-2.524 1.098-4.631 1.755-6.915-0.687-1.914-3.457-2.9-3.082-5.301-0.34-2.107 1.127-3.739 2.272-5.295-1.08-1.221-2.354-2.278-3.176-3.675-0.816-2.459-0.693-5.083-1.25-7.578-0.581-3.381-1.632-6.762-1.18-10.214 4.068-1.098 8.353-0.528 12.409-1.685 3.569-0.581 7.244-0.105 10.783-0.992 2.923-0.757 6.463-0.1 8.834-2.342 2.025-1.99 1.121-5.013 0.698-7.449-0.352-2.782-3.534-3.786-5.887-4.197-3.575 0.141-7.085 0.922-10.578 1.644-6.111 0.188-12.051 1.873-18.179 1.931-1.192-4.813-0.399-9.926-1.726-14.722-0.886-2.806-0.035-5.782-0.675-8.611-0.816-3.575-0.751-7.273-1.585-10.842-0.787-8.347-1.943-16.653-3.135-24.953-0.886-3.675-0.857-7.461-1.233-11.188-0.751-4.003-0.563-8.118-1.473-12.086-1.691-9.773-1.855-19.74-3.757-29.485-0.423-4.009-1.198-7.977-1.385-12.004-0.065-4.784-1.514-9.374-1.955-14.111-0.358-3.95-0.352-7.942-1.168-11.834-0.998-6.974-1.086-14.058-2.477-20.979-0.323-4.731-1.456-9.363-1.567-14.105-0.499-3.71-1.192-7.396-1.245-11.147 0.012-5.77-2.342-11.258-2.242-17.035-0.358-5.119-1.362-10.173-1.908-15.268-0.118-3.375-1.233-6.609-1.262-9.979-0.276-6.968-2.418-13.718-2.512-20.692-0.417-4.608-1.438-9.151-1.726-13.771-0.922-5.066-0.681-10.255-1.661-15.303-0.446-2.636-0.387-5.33-0.91-7.942-1.133-5.465-1.145-11.082-2.148-16.559-0.681-3.187-0.123-6.486-0.898-9.65-0.716-3.023-0.716-6.14-1.421-9.151-0.546-2.442-0.387-4.954-0.634-7.414-0.329-4.08-1.415-8.065-1.385-12.168 0.17-2.794-0.393-5.518-0.698-8.259 0.01-1.277-1.769-10.486-1.173-11.148 1.194-1.371 2.389-2.743 3.583-4.114-4.757-3.416-5.816-9.932-6.483-15.75l-3.598-31.361c-1.643-14.322-3.286-28.643-4.929-42.965-1.531-13.345-1.851-27.543-4.663-40.671-0.781-3.645-0.405-7.414-1.174-11.059-0.728-3.88-0.575-7.866-1.215-11.751-0.229-1.274-0.305-2.559-0.323-3.827 4.537 0.041 8.159 3.093 12.057 4.948 7.026 1.327 14.229 1.35 21.361 1.186 7.684-0.552 15.238 1.409 22.899 1.55 4.162 0.029 8.365 0.194 12.474-0.675 0.164-1.996-0.293-4.173 0.88-5.934 0.734-1.227 0.763-2.812 0.317-4.127-0.869-1.068-2.019-1.925-2.571-3.217-0.745-1.344-1.362-3.123-3.094-3.399-3.633-0.569-7.326-0.763-10.994-0.939-2.847-6e-3 -4.825-2.418-6.527-4.385 2.277-0.164 4.608-0.129 6.786-0.927-0.522-3.516-4.121-5.171-6.956-6.586-3.387-1.755-7.279-1.385-10.912-2.101-6.58-1.033-13.248-0.335-19.864-0.651-6.328-1.063-12.755-0.153-19.118-0.716-0.71-3.516-0.869-7.085-1.015-10.648-0.563-4.338-1.327-8.699-0.904-13.09 4.391-0.34 8.799 0.088 13.19-0.299 7.537-0.669 15.115 0.106 22.658-0.423-0.2-7.167-1.479-14.24-2.729-21.278-0.622-6.797-1.873-13.518-2.788-20.275-3.105-16.905-4.461-34.081-7.725-50.957-0.499-2.87-1.309-5.741-0.922-8.67 0.916-0.493 2.471-0.716 2.348-2.066-1.585-0.569-3.287-0.558-4.925-0.804 1.99-1.426 4.59-1.18 6.856-1.89 10.02-1.685 19.635-5.119 29.561-7.22 0.998 1.831 1.937 3.722 2.424 5.77 1.761 6.962 4.737 13.536 6.527 20.492 1.579 4.731 2.583 9.644 4.373 14.311 2.43 6.792 4.138 13.806 6.422 20.645 1.057 3.939 2.195 7.86 3.493 11.734 0.91 4.326 2.694 8.394 3.874 12.644 0.822 2.823 1.591 5.694 3.041 8.282 3.727-0.276 7.173-1.826 10.748-2.788 4.919-1.344 9.498-3.698 14.487-4.837 15.714-5.764 31.539-11.229 47.059-17.51 3.099-1.626 6.586-2.137 9.832-3.369-0.54-3.51-2.829-6.345-4.455-9.392-4.044-7.484-8.388-14.792-12.339-22.312-1.303-2.483-2.037-5.236-3.604-7.566-2.659-4.091-4.661-8.558-7.185-12.726-3.956-6.216-6.891-13.008-10.642-19.341-2.231-3.546-3.704-7.508-6.04-10.983-1.426-2.178-2.694-4.473-3.581-6.915-0.516-1.356 1.585-2.142 1.098-3.504-1.661-0.135-3.323 0.176-4.972 0.276 0.018-0.763 0.047-1.515 0.082-2.254 3.411-2.542 6.715-5.383 10.589-7.173 2.313 0.012 4.156 1.814 6.316 2.483-0.082-2.289-0.751-4.631-0.264-6.891 2.383-2.054 5.154-3.633 7.977-5.007 1.943 0.986 4.009 1.873 6.228 1.949-0.029-1.996 0.07-3.98 0.217-5.958 3.68 3.393 6.416 7.607 9.539 11.493 3.317 4.537 6.281 9.333 9.721 13.788 4.931 6.304 8.922 13.284 13.865 19.576 3.493 5.306 7.508 10.243 10.795 15.69 3.992 5.565 8.012 11.112 12.016 16.671 0.792 1.145 2.125 2.454 3.645 1.755 2.7-1.515 4.966-3.645 7.361-5.576 3.628-2.624 6.874-5.735 10.531-8.341 4.813-3.322 9.145-7.267 13.783-10.824 9.574-7.385 18.391-15.673 27.671-23.409 3.211-2.46 5.811-5.629 9.181-7.889-3.205-2.131-5.383-5.383-8.37-7.766-1.808-1.52-3.381-3.293-5.295-4.672-4.473-3.328-8.382-7.332-12.82-10.695-5.124-4.443-10.037-9.122-15.191-13.524-11.247-10.431-23.321-19.928-34.486-30.447 0.417-2.113 6e-3 -4.561 1.556-6.281 2.366-3.105 4.984-6.017 7.232-9.228 4.678-4.954 7.602-11.229 12.162-16.289 3.158 1.379 5.659 3.839 8.682 5.471 3.851 2.137 7.367 4.819 11.188 7.032 4.514 3.14 8.981 6.375 13.83 9.01 4.696 2.882 9.134 6.181 13.847 9.052 4.097 2.26 7.643 5.353 11.669 7.731 4.526 3.634 9.985 5.852 14.481 9.527 2.454 1.708 4.919 3.446 7.602 4.796 1.485 0.845 3.469 0.035 4.168-1.473 2.025-3.592 3.98-7.255 6.633-10.437 2.501-3.105 4.191-6.739 6.357-10.061 0.951-1.514 2.142-2.87 2.953-4.467 1.397-3.088 3.457-5.805 4.919-8.858 0.869-1.931 2.178-3.61 3.358-5.353 2.16-3.275 3.915-6.803 5.588-10.349 2.054-3.234 3.692-6.715 5.829-9.897 2.242-4.021 4.232-8.171 6.492-12.186-5.154-2.571-10.66-4.314-15.954-6.551-10.713-4.115-21.449-8.153-32.009-12.638-12.08-5.236-24.63-9.31-36.822-14.276-2.665-1.127-5.547-1.679-8.112-3.029-1.045-0.44-1.315-1.597-1.679-2.53-0.663-0.188-1.321-0.37-1.966-0.54 0.481-3.968 2.553-7.455 3.598-11.258 1.168-4.297 2.718-8.488 3.639-12.849 0.992-3.991 1.591-8.065 2.859-11.986 2.97-0.511 5.899 0.252 8.758 0.998 4.432 0.687 8.717 2.09 13.149 2.788 3.035 0.569 5.952 1.691 9.028 2.102 3.422 0.47 6.692 1.661 10.102 2.236 1.08 0.323 2.647 0.293 3.117 1.555 2.184 5.101 4.197 10.272 6.357 15.379 1.937 4.925 3.105 10.736 7.672 13.994 4.502 2.084 9.544 2.442 14.24 3.95 12.832 3.017 25.628 6.163 38.465 9.14 10.781 2.742 21.465 5.431 32.337 7.874 23.445 5.267 46.844 10.738 70.193 16.411 46.621 11.328 93.046 23.465 139.25 36.403 11.557 3.236 23.099 6.523 34.627 9.859 5.764 1.668 11.524 3.349 17.281 5.042 3.371 0.992 12.915 5.299 15.691 1.463 0.843-1.165 1.008-2.672 1.146-4.103 1.146-11.911 2.292-23.821 3.437-35.732 1.051-10.924 2.903-22.24 2.903-33.21 1.917-22.796 4.094-45.587 5.753-68.402 2.047-24.333 4.093-48.665 6.14-72.998 1.979-23.529 2.839-47.443 5.807-70.835-0.193-6.087 3.812-17.455-2.802-21.179zm-632.37 1279.4c1.685 0.857 0.927 3.011 1.057 4.531-1.697-0.909-0.998-2.993-1.057-4.531zm183.66-1206.6c1.444 0.112 3.475-0.575 4.35 0.998 0.892 0.98 0.123 2.448-0.833 3.064-1.421 0.916-2.97 1.773-4.69 1.849-3.88 0.428-7.737 1.027-11.622 1.309-2.213 0.246-4.332 1.086-6.568 1.021-3.187-0.076-6.21 1.092-9.363 1.233-2.782 0.188-5.441 1.291-8.253 1.109-3.199-0.211-6.169 1.45-9.368 1.168-1.949-0.117-3.874 0.153-5.729 0.704-2.389 0.793-4.954 0.153-7.349 0.886-2.958 0.91-6.105 0.657-9.081 1.444-3.088 0.81-6.357 0.217-9.415 1.162-1.843 0.587-3.798 0.423-5.67 0.775-2.072 0.341-4.109 0.916-6.216 0.904-2.982 0.023-5.817 1.162-8.799 1.174-2.418-0.041-4.596 1.333-7.026 1.151-3.029-0.205-5.823 1.274-8.834 1.227-4.984 0.264-10.014 2.477-14.974 0.963-0.088-2.307-0.763-4.978 0.81-6.95 1.861-1.444 4.338-0.963 6.521-1.25 8.423-1.133 16.847-2.154 25.27-3.299 3.769 0.035 7.39-1.133 11.129-1.391 2.571-0.276 5.078-1.015 7.678-1.063 7.478-0.528 14.845-2.107 22.347-2.424 3.974-0.182 7.86-1.104 11.834-1.315 2.911 6e-3 5.717-0.869 8.617-1.068 2.166-0.235 4.25-1.104 6.463-1.027 4.132-0.035 8.253-0.569 12.344-1.115 5.486-0.147 10.986-0.487 16.427-1.239zm5.225 20.463c-0.839 1.292-2.665 0.916-3.962 1.28-3.704 0.916-7.531 0.376-11.288 0.763-3.645 0.352-7.326 0.188-10.959 0.558-3.129 0.734-6.351 0.335-9.521 0.423-4.502 0.059-9.01-0.117-13.507 0.082-4.291 0.434-8.617 0.205-12.914 0.464-1.773 0.106-3.487 0.71-5.265 0.646-8.611-0.035-17.228-0.012-25.839-0.018-10.255-0.106-20.486 0.863-30.741 0.558 0.082-0.246 0.247-0.734 0.329-0.974 4.262-0.722 8.599-0.781 12.82-1.767 7.561-0.123 14.898-2.254 22.411-2.894 4.273-1.174 8.776-0.376 13.014-1.726 5.84-0.429 11.599-1.62 17.387-2.524 9.409-1.016 18.801-2.236 28.17-3.54 3.393 0.106 6.586-1.25 9.967-1.327 2.553-0.388 5.142-0.517 7.701-0.933 3.851-0.241 7.807-1.415 11.581-0.023 0.551 3.615 0.956 7.289 0.616 10.952zm-124.92 52.248c5.465 1.133 10.836 2.688 16.342 3.639 4.719 1.368 9.656 1.802 14.393 3.146 3.381 0.534 6.662 1.544 9.99 2.354 2.483 0.575 5.23 0.769 7.379 2.248 0.54 2.413 0.387 4.913 0.428 7.373-4.079 0.035-8.095 0.816-12.174 0.734-5.066 0.88-10.272 0.499-15.315 1.614-5.007 0.27-10.085-0.153-15.045 0.822-2.512 0.628-5.142 0.593-7.696 0.358-3.522-1.068-6.862-2.741-10.484-3.475-1.473 1.919-2.853 4.62-5.535 4.849 3.44-8.171 5.465-16.829 7.713-25.376 3.459-0.346 6.664 1.133 10.004 1.714zm-7.426-25c0.382-0.047 1.139-0.135 1.52-0.176 0.205 1.925-0.288 3.851-1.526 5.353-0.023-1.731 6e-3 -3.457 6e-3 -5.177zm55.982 66.718c-2.618-0.317-4.948-1.602-7.42-2.389-3.457-1.051-6.604-2.888-10.008-4.085-2.166-0.863-4.443-1.391-6.598-2.266-0.857-0.129-0.963-0.945-1.133-1.62 1.691-0.141 3.41-0.1 5.095-0.423 3.352-0.745 6.809 6e-3 10.19-0.505 3.246-0.546 6.568-0.558 9.844-0.252 0.27 3.832 0.229 7.695 0.03 11.54zm-77.378-0.036c-1.966 5.089-6.158 8.799-9.175 13.243-2.506 3.129-5.101 6.187-7.696 9.239-4.578 4.42-8.47 9.574-13.483 13.524-1.755 1.479-5.042 1.209-5.612 3.845-1.297 3.733-5.107 5.477-8.012 7.778-1.867 1.749-5.154 1.685-6.903-0.194-3.628-4.356-6.31-9.369-9.333-14.135-1.491-3.082-3.352-5.94-5.342-8.711-4.309-8.059-10.061-15.25-14.053-23.491 1.961-1.074 4.262-0.963 6.398-1.415 2.694-0.258 5.365-0.798 8.083-0.781 2.559 0.059 5.054-0.728 7.625-0.587 4.356 0.264 8.564-1.239 12.914-1.18 4.913 0.117 9.82-0.352 14.669-1.109 3.123-0.012 6.216-0.423 9.31-0.804 3.698-0.74 7.484-0.217 11.206-0.757 4.144-0.147 8.224-1.139 12.386-0.822-0.018 0.417-0.059 1.25-0.076 1.667-1.186 0.417-2.377 0.828-3.522 1.333 0.211 1.109 0.54 2.213 0.616 3.357zm-23.286 31.892c0.141-0.17 0.417-0.516 0.552-0.687 1.978-0.575-0.1 2.454-0.552 0.687zm-153.76 482.38c-0.293-4.919 0.358-9.797 0.546-14.698 0.035-1.221 0.787-2.278 0.804-3.487 0.035-3.141-0.288-6.263-0.241-9.398 0.094-6.099 1.297-12.127 1.18-18.232 0.229-4.86 0.828-9.697 1.221-14.54 0.634-2.982 0.117-6.064 0.822-9.028 0.382-5.236 0.546-10.513 1.374-15.696-0.305-8.676 1.291-17.211 1.702-25.845 0.018-3.011 0.798-5.935 0.998-8.922 0.417-3.041-0.053-6.122 0.352-9.157 0.781-3.71 0.481-7.525 1.057-11.258 3.287-0.693 6.621 0 9.938-0.024 7.449 6e-3 14.892-0.012 22.335 6e-3 1.696-0.041 3.363 0.335 5.007 0.728 0.698 3.234 0.569 6.539 0.786 9.826 1.051 4.749 0.546 9.679 1.426 14.475 3.533 18.762 3.676 38.535 5.099 57.615 1.472 19.72 2.955 39.438 4.486 59.153 0.146 1.89 0.586 5.81-1.16 7.192-1.292 1.023-4.158 0.496-5.694 0.508-5.677 0.044-11.403-0.299-17.018 0.75-2.782 0.411-5.459-0.704-8.23-0.616-8.224 0.065-16.448 0.023-24.671 0.07-0.886-0.065-1.826 0.065-2.647-0.288-1.075-3.041 0.786-6.058 0.528-9.134zm6.269-366.86c0.235 2.806-0.429 5.535-1.168 8.218-0.798-6e-3 -1.585-6e-3 -2.366 0 0.91-2.841 0.622-5.852 1.239-8.74 0.499-2.184 0.364-4.502 1.321-6.574 1.643 1.989 0.733 4.736 0.974 7.096zm-1.996 15.449c-0.27 2.888-0.387 5.8-1.086 8.635-0.123 2.313 0.088 4.667-0.564 6.932-1.573 0.2-3.158 0.088-4.59-0.599-0.346-3.158 0.728-6.169 1.209-9.245 0.47-2.565 1.338-5.03 1.99-7.549 1.262-0.093 3.029 0.201 3.041 1.826zm3.939-35.73c0.851 0.041 0.587 1.479-0.129 1.579-0.904-0.047-0.535-1.45 0.129-1.579zm12.773 97.764h1.673c0.094 2.759 0.17 5.553-0.475 8.271-0.317 6.439-0.769 12.885-0.675 19.341-0.628 5.412-0.892 10.848-1.327 16.277-0.904 4.273-0.869 8.658-1.127 12.996-0.746 3.669-0.517 7.437-0.927 11.153-0.364 2.982 0.329 6.081-0.657 8.981-1.016 2.53 0.552 5.412-0.898 7.831-1.514 2.542-0.751 5.594-0.933 8.4-0.282 0.17-0.839 0.517-1.121 0.693 0.1-3.739-0.575-7.596 0.558-11.223 0.675-2.113-0.323-4.308 0.117-6.451 0.599-3.105 0.387-6.263 0.493-9.392 0.998-6.797 0.663-13.73 1.796-20.51 0.434-7.842 1.55-15.632 1.685-23.486-0.088-2.172 0.663-4.262 0.593-6.427-0.09-5.518 1.26-10.942 1.225-16.454zm2.359-29.291c-0.123-0.933 0.98-1.174 1.644-1.391 0.311 5.418-0.106 10.812-1.057 16.148-0.581 3.305-1.045 6.639-0.963 10.002-0.335 0.094-1.01 0.288-1.344 0.382-0.546-5.5 1.145-10.889 1.057-16.389-0.129-2.947 0.681-5.811 0.663-8.752zm1.157-14.464c0.728-0.604 2.137 0.546 1.467 1.356-0.827 0.793-2.213-0.487-1.467-1.356zm-5.765 144.72c-0.047 0.769-0.094 1.55-0.135 2.336-0.452 0-1.35 6e-3 -1.802 6e-3 -0.059-0.798-0.112-1.579-0.158-2.354 0.522 0 1.573 6e-3 2.095 0.012zm-7.842-348.1c0.593-0.851 1.385-1.55 1.89-2.453 0.376-1.432 0.37-2.929 0.693-4.361 1.303-1.597 3.246-2.412 5.13-3.088 0.364 3.017-1.902 5.394-2.225 8.306-0.558 1.872-0.223 4.408-2.119 5.571-0.851 0.44-1.808 0.581-2.73 0.745 0.018-1.262 0.687-2.319 1.291-3.369-0.633-0.47-1.519-0.658-1.93-1.351zm1.086 58.13c0.135-2.982-0.094-6.011 0.599-8.934 0.522-2.859 0.241-5.788 0.704-8.658 0.341-3.663 2.8-6.833 2.43-10.607 0.423 0.018 1.268 0.059 1.691 0.076 0.916 3.082-0.452 6.181 0.082 9.292 0.716 4.256 0.464 8.629-0.029 12.896 0.205 1.379 0.61 2.741 0.558 4.162-0.035 5.876-0.023 11.757 0 17.633 0.117 2.143-0.816 4.132-1.156 6.216-0.91 2.665-0.622 5.547-1.379 8.247-0.652 0.769-1.767 1.121-2.184 2.06-0.346 1.426 0.951 2.401 1.456 3.592 0.54 2.853 0.112 5.782-0.828 8.505-1.556-0.481-3.129-0.892-4.719-1.198-0.129-4.056 0.041-8.118 0.258-12.174 0.205-3.721 1.162-7.361 1.233-11.088 0.275-6.689 1.46-13.31 1.284-20.02zm1.391 47.594c-1.479-0.493-4.074 0.106-4.467-1.837 1.503 0.093 4.573-0.494 4.467 1.837zm25.769-17.158c-0.17-2.078 0.476-4.396-0.716-6.246-1.514-2.489-1.714-5.506-1.667-8.341 0.041-10.76 6e-3 -21.525 0.018-32.285 0.023-2.947-0.27-5.964 0.622-8.817 0.992 0.534 2.184 0.928 2.841 1.925 0.423 2.418 0.276 4.913 0.81 7.332 0.728 2.865 0.247 5.835 0.552 8.746 0.252 2.5 0.382 5.013 0.704 7.513 0.188 1.192-0.428 2.389-0.035 3.575 1.057 3.686 0.247 7.572 1.045 11.305 0.734 3.27 0.499 6.668 1.227 9.95 0.734 2.847 0.346 5.811 0.71 8.711 0.188 2.06 0.828 4.115 0.434 6.193-0.288 1.556 1.274 3.375-0.012 4.708-1.233 1.156-2.236 2.923-4.109 2.964-1.984-3.334-1.268-7.443-1.831-11.141 0.787-0.499 1.567-0.998 2.36-1.485 0.064-2.019-1.573-3.404-2.953-4.607zm85.648-147.82c-2.418-0.147-4.596 1.221-6.997 1.145-3.193-0.123-6.222 1.133-9.398 1.174-2.424-0.023-4.737 0.704-7.091 1.133-2.724 0.164-5.453 0.012-8.177 0.076-2.806 0.094-5.506-0.781-8.265-1.098-3.123-0.246-6.246-0.61-9.28-1.391-6e-3 -0.252-0.029-0.751-0.035-0.998 3.281-0.728 6.639-0.106 9.955-0.135 5.87-0.035 11.728-0.587 17.604-0.505 2.002 0.023 4.027 0.047 6.011-0.317 3.228-0.575 6.516-0.047 9.768-0.405 4.678-0.769 9.433-0.393 14.152-0.452 6e-3 0.276 0.012 0.816 0.012 1.092-2.77 0.041-5.482 0.78-8.259 0.681zm11.312 1.303c2.63-0.317 5.324-0.153 7.913-0.816 2.73-0.734 5.606-0.505 8.371-1.098 3.41-0.71 6.927-0.687 10.343-1.426 2.231-0.528 4.578-0.223 6.797-0.834 3.98-1.086 8.142-0.957 12.221-1.039 2.712-0.059 5.436-0.393 8.153-0.164 1.955 1.403 3.892 3.205 6.51 2.999 0.188 3.845 0.147 7.701 0.047 11.552-7.285 0.575-14.452-1.344-21.736-1.109-4.913-0.205-9.926 0.581-14.728-0.693-6.21-0.857-12.497-0.246-18.731-0.569-5.424-0.822-10.918-0.986-16.389-1.162-4.802-1.021-9.738-0.258-14.599-0.534-0.188-0.264-0.558-0.792-0.74-1.051 8.706-2.19 17.798-2.166 26.568-4.056zm-56.98 3.504c-1.397 1.802-3.915 1.409-5.917 1.55-0.029-0.417-0.094-1.244-0.129-1.655 2.014-0.048 4.033-0.083 6.046 0.105zm-5.717 4.778c6.463-1.62 13.178-1.344 19.717-2.477 6.064 0.869 12.644 0.305 18.091 3.675 0.657 4.643-0.839 9.134-1.221 13.712-0.159 0.282-0.476 0.839-0.634 1.121-2.647 0.417-5.348 0.117-8.012 0.188-4.901-0.141-9.779 0.499-14.675 0.546-2.377-0.082-4.661 0.787-7.038 0.657-3.892-0.065-7.784 0.035-11.669-0.07 1.016-3.076 3-5.729 3.857-8.864 0.997-2.73 1.203-5.635 1.584-8.488zm-0.229 20.915c2.823 6e-3 5.664 0.112 8.482-0.235 5.541-0.675 11.141-0.094 16.706-0.434 3.246-0.599 6.574-0.581 9.862-0.417 1.086 0.558 0.722 1.872 0.751 2.876-0.511 4.496-1.139 8.987-1.72 13.483-1.532 6.756-1.902 13.695-2.97 20.527-0.082 1.338-0.029 2.688-0.018 4.044-4.643 0.423-9.263 1.456-13.941 1.215-2.007-3.452-4.08-6.856-6.04-10.331 2.219-0.282 4.931-0.945 5.606-3.416 0.464-2.031 0.47-4.831-1.503-6.105-4.074-3.158-9.28-4.303-13.63-6.997-2.565-2.131-3.622-5.418-5.324-8.177-1.027-1.726-2.688-3.193-2.835-5.312 2.054-0.985 4.361-0.715 6.574-0.721zm24.307 57.824c1.773 3.551 4.279 6.715 5.735 10.431-3.011-1.755-4.514-5.036-6.727-7.578-1.691-2.941-4.549-5.101-5.547-8.429 3.469-0.294 4.966 3.146 6.539 5.576zm-10.859-16.635c-1.52 0.117-3.064 0.341-4.567 0.047-1.92-1.338-2.841-3.575-4.332-5.306-1.544-1.825-3.07-3.663-4.326-5.694-1.655-1.89-3.44-3.745-4.367-6.128 0.751-1.086 2.025-0.153 3.035-0.059 2.013 0.64 4.514 0.428 6.058 2.084 2.87 4.989 5.764 9.972 8.499 15.056zm-19.834-32.801c-2.125-0.652-3.945-1.99-5.682-3.322-0.781-0.387-0.839-1.25-0.957-1.99 0.927-0.552 1.89-1.045 2.911-1.421 1.268 2.225 2.912 4.273 3.728 6.733zm-3.874-60.349c-0.605 2.33-3.07 3.54-5.265 3.898-0.217-3.763-1.127-7.443-1.227-11.212-0.088-4.444-1.497-8.87-0.669-13.307 0.581-2.324 2.418-3.95 4.49-4.978 0.047-2.395 0.675-4.737 1.937-6.78 1.966-3.17 3.563-6.545 5.676-9.627 1.421-1.984 2.231-4.308 3.598-6.328 1.497-2.636 3.534-4.972 4.484-7.895 2.565-4.948 6.099-9.374 8.406-14.469 1.027-2.248 2.459-4.279 3.44-6.545 1.057-2.688 3.135-4.772 4.338-7.39 3.534-4.896 5.154-10.936 9.222-15.479 0.047 1.209 0.07 2.483-0.64 3.534-1.96 3.628-2.594 7.825-4.778 11.329-0.939 4.267-3.117 8.101-4.59 12.18-1.286 2.225-1.796 4.766-2.911 7.062-2.007 4.52-3.428 9.275-5.571 13.724-0.945 2.295-1.374 4.772-2.483 7.003-1.368 2.771-1.972 5.829-3.011 8.717-2.929 5.271-4.215 11.241-6.839 16.647-0.745 2.806-2.072 5.4-2.888 8.183-0.986 4.132-3.411 7.712-4.719 11.733zm-5.219 71.707c1.708-0.933 3.874-0.188 5.072 1.239 1.814 2.143 3.205 4.614 4.925 6.839 3.317 3.939 6.328 8.118 9.503 12.18 0.587 0.569 0.628 1.403 0.792 2.178-5.788 0.024-11.435 1.368-17.205 1.426-4.849 0.029-9.603 1.691-14.464 0.857-0.751-0.364-1.532-0.763-2.025-1.438-0.382-1.303-0.182-2.753-0.787-3.962-1.309-1.38-2.906-2.424-4.479-3.457 1.421-1.878 3.381-3.223 5.189-4.69 4.128-4.128 8.413-8.214 13.479-11.172zm-11.564 391.21c0.012 1.145 0.018 2.295 0.029 3.457-4.308 0.323-8.641 0.516-12.961 0.376-7.384-0.751-14.81-0.112-22.212-0.47-0.106-1.145-0.147-2.283-0.135-3.405 1.086-0.423 2.242-0.558 3.405-0.428 10.608 0.787 21.25 0.2 31.874 0.47zm3-277.14c-0.974-2.324-0.475-4.872-0.857-7.296-0.857-7.502-1.961-14.992-2.254-22.552-0.91-8.353-1.438-16.735-1.802-25.129-0.822-4.285-0.1-8.67-0.722-12.978-0.452-1.79 1.321-2.988 1.638-4.625 0.323-1.602 0.364-3.246 0.47-4.866 5.512-1.755 11.417-1.109 17.052-2.277 8.183 0.076 16.271-1.655 24.472-1.215 9.656 12.515 19.095 25.176 28.692 37.732 2.518 2.812 4.731 5.864 7.015 8.864 0.311 2.595-0.188 5.283 0.235 7.907-1.919 2.148-4.655 3.164-6.956 4.79-4.238 2.724-8.729 4.99-13.113 7.437-1.961 1.227-4.156 6e-3 -6.257 0.111-0.516 1.092-1.015 2.195-1.467 3.322-4.068 1.292-7.772 3.581-11.945 4.467-5.647 1.943-11.581 2.853-17.328 4.449-2.583 0.869-5.348 0.698-7.96 1.397-2.896 0.879-5.949 0.386-8.913 0.462zm116.79-98.62c-4.537-0.076-9.04 0.54-13.513 1.174-3.692 0.153-7.449-0.305-11.065 0.669-3.399 0.998-6.962 0.176-10.401 0.828-3.035 0.264-6.023 1.127-9.081 0.898-2.248-0.117-4.332-1.045-6.386-1.849-0.117-2.189-0.176-4.402 0.382-6.539 1.104-6.692 1.409-13.483 2.823-20.128 1.391-5.987 1.016-12.204 2.33-18.203 0.417-4.127 0.704-8.288 1.509-12.362 2.759-0.041 5.535-0.317 8.282 0.123 2.865 0.423 5.776 0.053 8.646 0.387 7.754 1.456 15.69 0.869 23.532 1.057 4.637 0.833 9.38 0.646 14.076 0.91 6.457 0.446 13.043-0.282 19.371 1.403-0.053 3.094 0.264 6.21-0.135 9.286-0.264 1.708-1.403 2.97-2.818 3.851-0.716 1.467 1.391 2.442 1.362 3.88-0.235 2.753-0.188 5.612-1.438 8.153-1.585 7.795-3.833 15.514-7.061 22.799-0.569 1.984-2.776 2.442-4.573 2.512-5.3-0.029-10.618 0.288-15.842 1.151zm106.86-184.26c4.896-1.702 9.374-4.356 14.135-6.375 5.189-2.242 10.126-5.171 15.643-6.574 2.313 2.847 3.575 6.287 5.242 9.515 4.109 9.539 8.717 18.948 11.188 29.085-3.188 1.086-6.521 1.362-9.815 1.89-12.656 3.387-24.883 8.165-37.427 11.91-4.543 1.121-8.858 2.964-13.325 4.361-13.518 4.379-26.949 8.987-40.397 13.565-5.101 1.391-9.944 3.534-15.021 4.995-4.138 1.315-8.429 2.313-12.344 4.209-0.804 3.956 0.205 8.253 1.115 12.198-2.283-2.037-2.495-5.236-3.317-7.989-1.045-5.042-3.111-9.779-4.843-14.599-1.532-2.818-3.164-5.835-2.483-9.169 1.35-1.327 3.287-1.878 4.937-2.788 10.859-5.576 21.842-10.906 32.472-16.917 5.295-3.305 11.059-5.764 16.583-8.646 3.316-2.113 7.038-3.446 10.495-5.318 9.112-4.331 18.145-8.839 27.162-13.353zm-77.008-48.855c2.771-3.81 6.339-6.927 9.503-10.396 1.027-1.526 2.759-2.336 3.892-3.769 3.099-3.733 6.527-7.173 9.873-10.666 2.324-1.55 4.097-3.71 5.993-5.729 3.211-2.835 5.905-6.21 8.946-9.216 1.919-1.209 3.27-3.005 4.667-4.749 1.215-1.309 3-0.082 4.15 0.704 3.369 2.636 6.093 5.982 9.228 8.881 2.7 2.982 5.864 5.518 8.417 8.635 3.111 3.54 6.369 6.968 9.192 10.742 0.669 0.757-0.511 1.268-0.986 1.644-2.935 1.873-6.181 3.187-9.163 4.966-7.085 5.4-14.164 10.836-21.255 16.236-3.023 2.501-6.521 4.35-9.404 7.026-10.043 9.04-21.366 16.5-31.604 25.299-5.559 4.426-11.071 8.899-16.688 13.237-2.665 2.477-5.893 4.238-8.447 6.838-3.07 2.207-5.958 4.643-8.934 6.962 0.857 2.066 2.154 3.915 3.105 5.946 1.109 2.459 2.958 4.543 3.739 7.167-0.575 0.293-1.133 0.593-1.691 0.904 1.186 2.242 2.964 4.127 4.056 6.427 6e-3 1.274-0.411 2.518-0.34 3.798 0.933 0.998 2.413 1.168 3.663 1.591 3.264 4.631 4.772 10.137 6.968 15.291 3.493 9.644 6.539 19.459 8.817 29.461 0.522 1.538-0.869 2.829-1.356 4.203 0.869 0.869 1.89 1.638 2.518 2.729 0.64 2.653 0.628 5.424 1.303 8.077 0.211 1.732 0.622 3.986-0.922 5.242-3.997 2.506-8.905 1.315-13.26 2.641-4.244 0.382-8.511 0.61-12.72 1.321-3.499 0.282-7.021-0.112-10.525 0.205-3.71 0.358-7.437 0.464-11.159 0.446-2.172-0.1-4.261 0.681-6.427 0.622-2.143 6e-3 -4.279-0.088-6.41 0.106-5.113 0.522-10.261 0.217-15.379 0.522-7.267 1.098-14.64 0.153-21.942 0.751-5.582 0.17-11.176 0.1-16.759 0.34-3.088 0.476-5.465-2.201-8.552-1.884-1.415-2.477-3.211-4.714-4.719-7.126-0.458-1.644-0.205-3.399-0.229-5.078 0.1-3.798 2.841-6.792 3.675-10.384 0.581-2.518 1.532-4.913 2.688-7.208 1.491-4.027 3.246-7.954 4.467-12.074 1.696-3.369 2.7-7.02 4.215-10.466 0.845-2.254 2.266-4.338 2.501-6.78 0.065-2.049 1.779-3.469 2.207-5.4 0.746-3.158 2.407-5.982 3.434-9.04 1.966-5.835 4.62-11.376 6.874-17.093 1.027-3.504 2.976-6.645 3.98-10.161 2.019-4.849 3.898-9.762 5.864-14.634 0.704-2.013 1.837-3.862 2.307-5.952 0.405-1.89 1.714-3.387 2.571-5.077 1.491-0.282 3.111-1.104 4.555-0.176 6.257 3.463 12.339 7.238 18.543 10.807 1.919 0.933 2.013 3.211 2.594 5.001 1.955 0.141 4.121-0.041 5.676 1.391 6.193 4.714 11.869 10.096 17.158 15.802 0.329-0.217 0.974-0.646 1.303-0.863-3.105-4.256-7.314-7.531-11.153-11.082-0.787-0.88-2.395-1.415-2.078-2.841 0.176-1.679 1.438-2.976 2.495-4.197 4.925-5.054 10.008-9.961 14.704-15.227 2.459-3.199 5.512-5.864 8.048-8.999 3.645-4.174 7.742-7.907 11.347-12.11 2.154-2.36 4.25-4.772 6.486-7.062 2.283-2.02 3.985-4.609 6.38-6.522zm-21.924-84.662c1.08-1.397 3.076-1.051 4.49-0.434 3.845 1.691 7.596 3.616 11.528 5.101 0.018 0.716 0.276 1.573-0.393 2.101-2.677 3.234-5.535 6.357-7.543 10.079-4.86 6.633-8.981 13.753-13.319 20.727-2.278 3.774-5.007 7.267-7.109 11.147-3.099 5.248-6.439 10.343-9.809 15.42-2.395 3.504-4.303 7.32-6.786 10.765-1.961 4.309-5.095 7.913-7.367 12.045-3.581 5.306-6.662 10.918-10.055 16.342-2.953 4.502-6.181 8.828-8.529 13.7 0.71 1.221 1.908 2.043 2.988 2.911 2.231 1.685 4.285 3.592 6.592 5.183 1.362 0.957 2.835 1.961 3.487 3.581-2.366-0.763-4.508-2.049-6.527-3.469-3.868-2.436-7.954-4.502-11.822-6.932-1.52-0.763-2.037-2.542-1.784-4.121 2.6-9.65 8.482-17.915 13.413-26.479 1.743-3.316 4.273-6.199 5.582-9.75 2.653-4.203 5.007-8.599 7.731-12.767 1.362-3.058 3.199-5.858 4.684-8.858 2.043-4.162 5.289-7.684 6.703-12.157 3.452-4.285 4.69-9.85 7.913-14.299 3.358-5.882 6.41-11.934 9.685-17.862 1.51-4.279 4.099-8.018 6.247-11.974zm-11.253-7.584c2.612 1.28 5.488 2.107 7.836 3.892 1.215 0.763 0.675 2.324 0.211 3.375-2.119 4.778-4.461 9.474-7.308 13.853-2.706 5.741-5.917 11.212-9.075 16.706-1.415 3.176-3.311 6.087-4.931 9.145-3.346 7.079-7.872 13.524-11.176 20.621-1.556 1.925-2.013 4.461-3.516 6.422-1.767 2.254-2.712 5.013-4.367 7.337-2.102 3.105-3.246 6.956-6.228 9.392 0.223-3.774 2.589-6.891 3.293-10.548 3.663-10.014 7.795-19.858 11.241-29.954 2.225-4.579 3.422-9.568 5.665-14.135 2.636-7.208 6.134-14.064 8.652-21.314 1.878-4.719 3.769-9.427 5.976-14 0.528-1.544 2.524-1.414 3.727-0.792zm-62.626 113.9c2.994-7.026 5.377-14.311 8.84-21.138 3.07-7.114 5.647-14.428 9.046-21.396 3.598-10.302 8.776-19.975 12.708-30.154 0.992-2.471 2.483-4.708 3.405-7.202 1.039-3.44 3.111-6.445 4.256-9.85 1.356-4.226 4.232-7.754 5.647-11.963 1.978-3.24 3.141-6.903 5.177-10.126 1.843-2.536 2.254-5.794 4.068-8.353 1.561 0.869 2.066 2.947 3.193 4.314 0.076 1.35-0.687 2.636-0.898 3.968-0.546 2.835-2.847 4.895-3.499 7.69-0.898 3.205-2.524 6.128-3.557 9.286-0.945 2.847-2.606 5.383-3.598 8.206-0.986 2.677-1.896 5.383-3.17 7.936-1.831 3.686-2.506 7.813-4.438 11.452-4.655 12.397-9.498 24.706-14.011 37.157-3.892 9.081-7.156 18.39-10.384 27.724-1.256 1.925-2.407 3.909-3.252 6.052-0.745 1.274-1.438 2.9-2.947 3.399-2.565-0.927-5.142-1.984-7.39-3.545-0.487-1.203 0.458-2.348 0.804-3.457zm-54.338-24.484c0.534-5.459 0.417-10.953 0.569-16.424 0.974-6.586 0.182-13.289 0.957-19.893 0.475-3.945-0.27-7.96 0.675-11.857 0.17-4.684 0.698-9.351 0.704-14.041 1.197-5.013 0.029-10.22 1.074-15.262-0.288-3.587 1.115-6.991 0.834-10.566-0.082-2.583 0.892-5.042 1.021-7.607 0.411-7.59 1.192-15.15 1.931-22.711 0.211-0.898 0.599-1.743 1.021-2.559 3.545 0.106 7.155-0.346 10.648 0.499 4.015 0.91 8.212 0.217 12.186 1.356 2.794 0.71 5.776 0.17 8.488 1.321 3.135 0.282 6.087 1.374 9.063 2.319 0.252 2.107-0.493 4.127-1.35 6.011-0.969 2.043-1.198 4.314-1.726 6.486-0.675 3.011-2.031 5.841-2.225 8.957-0.828 2.958-1.321 5.993-2.131 8.958-0.516 3.763-1.99 7.314-2.401 11.088-0.153 1.602-0.857 3.082-1.051 4.678-0.299 3.939-1.808 7.654-2.313 11.57-0.311 2.906-1.198 5.688-2.06 8.459-0.593 4.919-1.89 9.703-2.865 14.551-1.28 4.62-1.767 9.41-3.082 14.029-0.417 3.158-1.544 6.169-1.79 9.363-0.516 3.604-2.119 6.968-2.254 10.636-0.922 3.375-1.344 6.85-2.002 10.284-0.387 2.454-1.497 4.761-1.473 7.285 3.299 0.693 6.158 2.506 9.345 3.51-5.547-0.305-10.713-2.641-16.248-2.976-3.322-0.693-6.709-1.016-10.102-0.998-2.794 0.176-5.248-1.614-8.071-1.303-0.164-0.223-0.493-0.675-0.652-0.904 1.861-0.611 3.81-0.845 5.77-0.816-0.026-4.485-0.789-8.952-0.49-13.443zm-8.106 17.68c4.579-0.323 9.139 0.252 13.677 0.822 11.775 0.575 23.221 3.774 34.456 7.155 1.391 0.299 1.761 1.849 2.418 2.923 5.576-1.544 11.083 1.38 15.632 4.35-0.112 1.937 0.07 3.956-0.616 5.811-2.894 5.635-6.504 10.865-9.351 16.53-1.726 2.512-2.43 5.588-4.42 7.936-3.182 4.743-5.876 9.797-8.464 14.892-2.201 5.048-5.694 9.392-7.971 14.399-2.031 2.594-3.193 5.717-5.13 8.376-1.332 1.737-1.632 4.015-2.976 5.741-2.037 2.653-3.352 5.735-4.948 8.646-0.722 1.632-2.917 0.751-4.303 0.951-0.693-5.072-0.182-10.231-0.898-15.297-0.516-4.649 0.023-9.345-0.605-13.988 0.094-4.332-0.27-8.652-0.194-12.978 0.059-1.978-0.728-3.862-0.646-5.841 0.088-3.921-0.411-7.825-0.458-11.746-0.176-3.158 0.276-6.369-0.622-9.445-0.317-5.993 0.205-12.033-0.229-18.015-0.828-1.685-2.929-1.925-4.496-2.547-3.974-1.344-8.465-1.978-11.728-4.79-0.411-1.56 1.256-2.605 1.872-3.885zm5.265 191.92c0.182 2.559-3.698 2.013-3.815-0.024 1.262-0.018 2.536-0.012 3.815 0.024zm-0.763 8.171c0 2.917 0.311 5.899-0.505 8.752 0.986 0.035 1.978 0.082 2.982 0.141-0.111 2.865-3.217 4.085-5.389 5.248-0.018-1.52 0.094-3.047-0.123-4.549-0.798-0.992-1.908-1.679-2.671-2.677-0.745-1.626-1.221-3.358-1.955-4.984 2.554-0.646 5.114-1.268 7.661-1.931zm-11.106 367.47c-0.158 0.998 0.593 1.755 1.309 2.354 1.344 0.288 2.747 0.158 4.103 0.423 0.734 0.781 0.317 2.072 0.499 3.076 1.074 0.511 2.254 0.693 3.452 0.728-0.07-3.099-0.429-6.234 0.282-9.286 0.37-1.385 0.446-2.818 0.481-4.232 0.698-0.059 1.409-0.1 2.119-0.135-0.065 3.176 0.898 6.257 0.769 9.451-0.129 2.735 0.839 5.4 0.552 8.142 0.299 1.737 0.663 3.481 0.423 5.271-7.995 0.135-15.996 0.018-23.99 0.059-3.076-0.065-6.163 0.17-9.228-0.164-0.681-5.676 1.362-11.217 1.092-16.882-0.018-1.79 0.387-3.534 0.599-5.289 1.168 2.307 3.704 3.921 6.334 3.61 0.511-1.773 0.834-3.639 1.966-5.136 2.818-0.258 5.735-0.511 8.464 0.446 0.669 2.469 0.839 5.005 0.774 7.564zm-2.342-566.49c0.317 2.049-0.992 3.727-1.391 5.653-1.826 0.446-2.289 2.442-3.692 3.451-2.225 1.89-3.98 4.221-5.788 6.48-1.784 2.254-2.659 5.06-4.438 7.314-3.352 5.494-6.574 11.059-9.685 16.7-2.606 5.218-5.306 10.413-7.948 15.59-1.585 1.679-2.254 3.945-3.528 5.835-1.327 1.978-2.63 3.986-4.074 5.882-0.475 0.47-0.845 1.497-1.69 1.209-4.097-1.872-6.116-6.152-8.693-9.58-4.138-5.083-8.071-10.337-11.916-15.643-2.841-3.246-5.571-6.604-8.124-10.073-0.358-2.483 0.599-5.083-0.464-7.461 3.686-2.9 8.059-4.678 11.928-7.296 2.741-1.667 5.782-2.765 8.558-4.379 1.849-1.215 4.109-0.657 6.134-0.293 0.757-1.309 1.227-3.093 2.806-3.639 5.888-2.383 11.986-4.191 18.05-6.058 5.124-1.491 10.319-2.694 15.643-3.181 2.718-0.734 5.518-1.034 8.312-0.511zm-82.384 278.89c-1.309 0.076-2.724 0.763-3.945 0.023-1.99-0.804-3.692-2.143-5.124-3.716-7.431-6.422-14.464-13.342-20.715-20.92-2.319-3.716-5.753-6.739-7.296-10.912-0.358-1.145 0.423-2.178 0.822-3.182-1.021-0.616-2.207-0.734-3.369-0.81-3.27-4.708-5.412-10.096-7.431-15.426-2.659-6.251-4.807-12.702-6.551-19.253-0.528-3.352-1.902-6.492-2.565-9.803-0.399-1.867 0.675-3.499 1.197-5.201-0.575-1.297-2.506-1.661-2.618-3.223-0.475-3.158-1.151-6.304-1.127-9.515-0.1-1.468 0.957-2.829 2.213-3.463 4.925-1.168 10.038-1.115 15.009-1.99 3.786 0.07 7.396-1.362 11.182-1.286 3.739-0.112 7.361-1.391 11.124-1.127 5.301 0.264 10.554-0.663 15.849-0.563 4.074 0.018 8.147-0.059 12.221 6e-3 1.696 2.377 2.589 5.195 4.179 7.643 2.031 4.214 5.383 7.531 8.194 11.206 5.342 5.101 10.677 10.783 17.927 13.107 3.545 1.403 7.643 1.526 10.707 4.015 2.272 1.374 3.322 3.927 5.224 5.688-0.293 1.221-0.07 2.448 0.27 3.645-3.645 0.857-7.155-1.151-10.666-1.843-2.407-1.051-5.171-0.117-7.502-1.356-2.595-1.145-5.242-2.172-7.901-3.146-2.336-0.869-4.849-1.227-7.097-2.319-1.28-1.344-2.683-3.211-4.802-2.641-0.875 2.102-2.231 4.127-2.172 6.486 6e-3 1.779-0.517 3.487-0.822 5.23 0.687 1.55 2.559 0.552 3.798 0.558 0.317-0.781 0.64-1.556 0.963-2.33 4.109 0.446 5.735 4.819 9.069 6.639 2.994 2.776 7.396 2.319 10.707 4.473 3.839 2.002 7.737 3.903 11.769 5.5-1.162 3.469-2.87 6.739-3.739 10.308-0.939 3.434-3.217 6.386-3.563 9.996-1.62 2.87-2.894 5.929-3.81 9.11-2.442 5.089-4.238 10.448-5.846 15.849-1.978 4.25-3.328 8.734-5.154 13.049-0.939 2.371-1.503 4.919-2.841 7.12-0.951 0.669-2.06 1.239-3.228 1.368-3.334-1.802-6.521-3.874-10.008-5.377-3.986-2.659-8.165-5.03-12.016-7.883-0.739-1.04-0.299-2.531-0.516-3.734zm-61.482-130.94c-0.258-2.847-0.047-5.717 0.294-8.541 0.622-1.074 1.714-1.749 2.624-2.553-0.769-1.855-2.225-3.669-1.597-5.788 1.233-5.406 2.395-10.836 3.821-16.195 0.634-4.35 3.064-8.153 3.833-12.456 0.382-2.101 1.567-3.915 2.489-5.805 1.438-2.718 2.553-5.6 4.086-8.265 0.769-1.643 2.964-1.655 3.974-3.052 0.446-1.274-0.558-2.765 0.094-3.992 6.727-10.266 14.534-19.793 23.128-28.545 2.483-2.812 5.054-5.576 7.977-7.924 1.28-0.299 2.606-0.235 3.915-0.288-0.223-3.146 2.049-5.524 4.438-7.197 1.82-1.268 3.416-2.829 5.207-4.138 2.536-1.133 5.377 0.352 6.962 2.413 1.162 1.608 2.289 3.258 3.24 5.007 2.295 5.089 5.711 9.55 8.4 14.428 1.362 2.542 3.005 4.925 4.309 7.508 1.902 3.845 4.837 7.05 6.762 10.883 1.35 1.591 1.849 3.581 2.09 5.606 0.875 1.256 1.156 2.7 0.792 4.203-1.996 1.192-2.307 3.61-3.399 5.471-1.057 1.743-1.556 3.792-2.876 5.377-2.002 2.471-3.146 5.489-4.79 8.171-1.685 0.611-3.54-0.305-5.295-0.123-0.34 1.89-1.878 3.704-1.133 5.659 0.98 0.082 1.961 0.182 2.953 0.293-0.364 4.08-3.281 7.15-5.124 10.625-1.004 2.125-2.289 4.127-3.047 6.369-0.44 1.755-2.143 2.818-2.559 4.584-0.458 1.767-0.869 3.616-2.043 5.078-1.379 1.796-1.397 4.209-2.647 6.081-2.242 3.487 0.241 7.467-0.053 11.206-0.329 3.358 1.233 6.545 0.74 9.909-6.927 0.875-13.806 2.084-20.627 3.545-3.956-0.029-7.731 1.503-11.693 1.268-4.32-0.059-8.599 0.681-12.914 0.581-3.176 0.076-6.404-0.335-9.527 0.417-2.055 0.276-4.156 0.288-6.21 0.035-2.254-1.415-4.749-2.319-7.138-3.44 0.151-5.473-0.524-11.02 0.544-16.415zm89.892-87.356c2.289 2.377 4.226 5.066 6.328 7.613 1.415 1.655 2.084 3.763 2.565 5.852-1.567-1.239-3.029-2.641-4.027-4.391-1.708-2.975-3.592-5.875-4.866-9.074zm-1.866 148.87c-1.426 0.082-2.829-0.241-3.528-1.603 1.291-0.058 3.328-0.111 3.528 1.603zm6.169 75.006c2.195-6.111 4.643-12.139 7.067-18.162 1.579-5.588 4.35-10.713 6.187-16.207 1.649-3.146 1.949-6.797 3.721-9.879 0.517 0.886 0.922 2.236 2.184 2.254 2.213 0.135 4.332-0.833 6.568-0.593-0.681 2.301-1.972 4.344-3.129 6.433-4.526 7.819-8.864 15.743-13.419 23.538-1.274 3.557-3.992 6.328-5.43 9.809-2.019 3.005-3.111 6.615-5.805 9.157 0.189-2.253 1.305-4.26 2.056-6.35zm-25.493-411.06c9.486-3.522 19.336-6.07 29.309-7.742 3.498-0.775 6.968-2.096 10.613-1.79 0.816 5.565-0.059 11.247 0.775 16.811 0.563 2.735 0.458 5.559 1.086 8.283 0.91 3.98 0.358 8.153 1.45 12.104 0.781 2.483 0.475 5.136 1.145 7.643 0.534 2.002 0.252 4.109 0.716 6.122 1.139 3.692 0.851 7.637 1.79 11.376 0.792 2.888 0.076 5.958 1.098 8.811 0.393 5.265 2.319 10.343 2.008 15.667 1.826 8.723 2.518 17.639 4.144 26.391 0.258 3.592 1.133 7.091 1.544 10.666 0.276 3.275 0.787 6.539 1.432 9.762 1.814 0.288 3.669 0.276 5.483-0.07 2.812-0.546 5.7-0.335 8.535-0.1-2.506 0.798-5.054 1.532-7.695 1.667-2.154 0.464-4.267 1.145-6.498 1.104-6.739 1.643-13.319 3.951-20.028 5.741-1.333 0.382-2.712 0.558-4.091 0.581 0.933-0.969 2.078-1.691 3.281-2.289-0.035-0.775-0.1-1.544-0.194-2.307-3.545-13.407-8.059-26.514-12.01-39.804-1.156-2.747-1.925-5.623-2.659-8.5-3.992-12.386-7.496-24.918-11.335-37.344-1.121-2.806-1.432-5.846-2.471-8.664-1.344-2.835-1.139-6.075-2.154-9.01-1.491-5.846-3.017-11.693-4.097-17.627-0.338-2.516-1.477-4.905-1.177-7.482zm-63.571 34.31c2.653-1.849 5.031-4.373 8.247-5.201 1.573 3.17 2.231 6.709 3.927 9.826 5.817 11.517 11.975 22.852 17.874 34.321 5.371 11.211 11.3 22.141 17.61 32.836 2.917 5.371 5.119 11.123 8.558 16.207 2.313 4.69 4.625 9.404 7.12 14 2.36 2.659 3.193 6.216 5.095 9.169 5.242-1.385 9.879-4.473 15.15-5.876-1.831 2.013-4.485 2.953-6.703 4.443-3.211 1.597-6.134 3.68-9.245 5.436-1.626 1.039-3.815 1.203-5.576 0.499-5.083-8.118-10.178-16.236-14.863-24.595-1.955-4.309-5.394-7.707-7.443-11.963-1.561-2.266-2.724-4.755-3.945-7.208-9.715-15.943-19.054-32.103-28.78-48.01-0.957-1.25-1.943-2.489-2.618-3.921-2.389-4.737-5.77-8.946-7.637-13.953 1.209-1.96 0.998-4.777 3.229-6.01zm-16.606 13.988c1.479-1.109 3.111-1.996 4.602-3.099 1.397-0.957 2.747-2.178 4.473-2.471 2.454 1.215 3.921 3.61 5.371 5.817 3.798 6.023 7.109 12.344 11.159 18.209 1.051 1.726 1.961 3.534 2.923 5.312 4.672 7.149 8.952 14.552 13.307 21.901 1.192 2.278 2.395 4.567 3.857 6.698 1.644 2.172 2.407 4.86 4.285 6.88 2.982 5.183 5.641 10.607 9.222 15.426 1.086 1.726 1.784 3.657 2.776 5.436 0.945 1.966 2.336 3.716 2.976 5.829-3.328-3.739-6.768-7.431-9.568-11.599-0.734-1.015-1.673-1.843-2.471-2.794-4.103-5.993-9.098-11.305-13.29-17.24-4.244-4.948-8.417-9.961-12.444-15.098-1.796-3.035-4.52-5.359-6.41-8.324-4.772-5.459-8.822-11.482-13.342-17.14-2.107-2.6-3.868-5.459-6.017-8.024-1.051-1.64-2.237-3.776-1.409-5.719zm-2.765 5.107c4.191 3.592 6.386 8.811 9.961 12.926 7.813 10.366 16.072 20.38 23.979 30.676 6.633 8.241 13.518 16.295 19.776 24.83 4.719 5.148 8.688 10.906 12.826 16.524 4.103 4.755 8.089 9.638 11.757 14.734-0.751 1.626-1.379 3.305-0.699 5.083-2.16 1.708-4.449 3.369-7.114 4.191 0.47-1.174 1.156-2.242 1.849-3.293-4.32-4.637-7.472-10.179-11.429-15.103-2.354-2.589-4.074-5.664-6.404-8.271-6.093-7.472-11.411-15.532-17.416-23.069-2.454-3.399-5.336-6.475-7.572-10.032-3.657-5.154-7.144-10.431-10.9-15.508-2.383-2.066-3.352-5.177-5.506-7.443-4.08-5.917-7.989-11.957-12.01-17.909-1.391-3.199-4.89-5.394-5.136-9.034 1.361-0.776 2.923-0.265 4.038 0.698zm-75.118 68.384c4.291-7.073 10.008-13.113 14.904-19.752 2.377-2.771 4.602-6.791 8.617-7.05 2.694 2.43 4.884 5.342 7.332 8.001 3.099 2.771 5.888 5.87 9.186 8.423 10.807 10.583 22.881 19.746 33.758 30.254 3.264 2.589 5.917 5.876 9.357 8.253 5.301 5.078 11.047 9.662 16.359 14.728 8.1 6.756 15.925 13.83 23.808 20.844-3.34 4.561-7.472 8.488-10.495 13.278-1.767 2.225-3.264 4.989-6.005 6.128 0.294-1.966 0.963-3.845 1.937-5.565-1.849-1.726-4.185-2.788-6.21-4.273-6.768-4.661-13.97-8.629-20.68-13.372-1.732-1.245-3.704-2.102-5.412-3.369-6.439-5.33-14.17-8.817-20.768-13.923-6.568-4.109-12.832-8.682-19.283-12.973-10.413-6.422-20.052-13.988-30.054-20.991-2.301-2.101-5.265-3.358-7.337-5.711-0.111-1.069 0.505-2.026 0.986-2.93zm-3.862-1.508c1.943 0.082-0.91 1.761 0 0zm-38.154 94.347c0.094-1.714 0.88-3.258 1.327-4.878 2.113-7.249 3.98-14.569 6.574-21.672 0.828-2.084 0.939-4.397 2.037-6.381 4.719 1.696 8.958 4.414 13.442 6.621 2.559 1.561 5.559 2.125 8.23 3.463 3.845 1.315 7.302 3.557 11.241 4.649 6.099 1.755 11.622 4.989 17.616 7.044 4.819 2.013 9.644 4.027 14.522 5.911 4.667 1.415 9.087 3.51 13.665 5.171 3.751 0.898 7.167 2.688 10.754 4.038 10.448 4.972 21.502 8.488 32.155 12.967 1.139 0.399 2.471 1.168 3.663 0.499 1.033-1.303 1.966-2.694 3.14-3.88-0.746 2.583-1.462 5.183-2.178 7.778-2.172 5.148-2.958 10.719-4.402 16.084-0.411 1.045-1.297 1.796-2.002 2.641-0.041-1.162-0.07-2.325-0.129-3.475-4.314-1.45-8.893-1.867-13.225-3.269-5.007-1.338-10.067-2.436-15.103-3.639-5.606-1.027-10.983-2.958-16.524-4.22-2.154-0.792-4.514-0.634-6.656-1.444-2.325-0.798-4.708-1.374-7.138-1.702-10.231-2.583-20.474-5.083-30.618-8.018-4.173-1.303-8.552-1.784-12.673-3.281-5.799-2.107-11.951-3.005-17.739-5.154-3.047-1.18-6.345-1.638-9.304-3.041-1.18-0.47-0.67-1.855-0.675-2.812zm-5.142 79.655c-1.82-1.755-0.258-4.455-1.045-6.563-0.534-1.462-0.205-2.976 0.211-4.408 3.956 0.176 7.748 1.638 11.728 1.532 9.791 0.282 19.588 0.288 29.379 0.311 2.911 0.628 5.876 0.587 8.84 0.61 12.297 0.904 24.665 0.053 36.939 1.168 5.277 0.076 10.554 0.023 15.819 0.505 9.973 0.082 19.952 0.018 29.925 0.041-0.041-3.974 0.575-7.913 1.297-11.799 0.311-1.614-0.188-3.446 0.927-4.819 0.352 4.156 0.012 8.323-6e-3 12.485 0.205 3.71 0.452 7.472-0.511 11.112-2.835 0.74-5.794 0.288-8.682 0.581-5.3 0.376-10.683-0.499-15.919 0.569-2.694 0.252-5.412-0.088-8.106 0.2-5.283 0.569-10.607 0.147-15.902 0.434-4.314 0.188-8.67-0.346-12.92 0.575-9.198 0.088-18.396 6e-3 -27.595 0.047-7.643-0.164-15.25 0.681-22.887 0.546-2.577-0.176-5.06 0.716-7.631 0.628-3.669-0.07-7.343 0.141-11.006-0.082-1.071-1.143-1.617-2.681-2.855-3.673zm2.16 7.337c3.105-1.526 6.586-1.215 9.938-1.233 11.165 0.217 22.306-0.734 33.47-0.569 1.978 0.065 3.868-0.693 5.846-0.622 13.113 0.047 26.227-6e-3 39.34 0.029 4.115 0.117 8.189-0.575 12.297-0.687 3.874-0.822 7.842-0.417 11.769-0.499 4.009 0.065 8.03-0.217 12.039 0.117-0.775 0.587-1.655 1.051-2.647 1.01-3.968 0.088-7.813 1.292-11.781 1.274-2.583 0.035-4.989 1.268-7.59 1.133-2.994-0.053-5.858 0.939-8.817 1.198-2.389 0.194-4.631 1.268-7.05 1.156-2.589-0.059-5.013 1.045-7.584 1.121-1.626 0.041-3.228 0.264-4.802 0.657-3.452 0.816-7.044 0.305-10.495 1.104-2.853 0.646-5.788 0.722-8.635 1.356-2.571 0.663-5.248 0.317-7.842 0.751-1.767 0.159-3.481 0.657-5.242 0.822-3.88 0.182-7.643 1.274-11.523 1.444-4.825 1.109-9.809 0.757-14.645 1.802-2.501 0.569-5.101 0.088-7.613 0.61-2.366 0.47-4.79 0.329-7.179 0.205-1.295-3.92-1.489-8.087-1.254-12.179zm6.233 16.794c-1.456 0.135-3.07 0.534-4.397-0.288 0.299-0.299 0.898-0.904 1.197-1.203 4.866-0.352 9.662-1.52 14.563-1.321 5.623-0.616 11.229-1.462 16.876-1.867 9.609-1.796 19.418-1.919 29.015-3.757 3.686-0.387 7.314-1.356 11.036-1.38 1.655 0.012 3.199-0.634 4.79-0.992 5.459-0.757 11-1.127 16.365-2.442 4.267-0.041 8.371-1.374 12.638-1.52 4.755-0.886 9.591-1.098 14.352-1.99 4.068 0.041 8.312-1.755 12.239 6e-3 0.094 2.712 0.569 5.4 0.599 8.118-0.387-0.024-1.156-0.076-1.544-0.1-0.247-1.303-0.54-2.583-0.845-3.863-2.295 0.546-4.661 0.423-6.991 0.458-3.358 0.059-6.592 1.262-9.961 1.162-3.176-0.111-6.187 1.168-9.351 1.156-3.774-0.082-7.414 1.227-11.176 1.203-3.763-0.018-7.408 1.08-11.147 1.244-2.765 0.147-5.453 0.875-8.2 1.074-4.749-0.035-9.339 1.456-14.1 1.315-5.359 1.039-10.807 1.186-16.207 1.896-2.195 0.505-4.449 0.206-6.668 0.428-2.941 0.376-5.841 1.215-8.828 1.068-4.35-0.217-8.582 1.098-12.914 1.18-3.78 0.063-7.596-0.236-11.341 0.415zm52.689 83.834c-3.622 2.289-7.801 3.411-11.581 5.383-7.202 3.005-14.035 6.868-21.372 9.527-2.313-2.542-3.152-5.923-4.672-8.922-0.839-3.557-3.005-6.563-4.132-10.008-1.344-4.062-3.44-7.889-4.103-12.156-0.141-0.88 0.869-1.045 1.479-1.233 3.915-1.262 8.077-1.468 11.992-2.73 8.312-2.36 16.224-5.917 24.524-8.312 7.59-2.166 14.927-5.095 22.423-7.549 3.052-1.503 6.474-1.984 9.627-3.24 9.216-3.563 18.766-6.163 28.029-9.597 3.698-1.638 7.695-2.407 11.505-3.716 6.21-2.389 12.603-4.244 18.807-6.639 0.522-3.287-1.027-6.445-1.115-9.726 1.18 2.43 2.084 4.984 2.812 7.59 1.227 4.273 3.152 8.294 4.608 12.485 0.675 2.718 3.005 4.872 2.671 7.848-1.156-0.622-2.049-1.638-3.211-2.207-1.685 6e-3 -2.982 1.315-4.455 1.966-6.492 3.299-12.92 6.733-19.494 9.861-4.514 2.401-9.363 4.115-13.765 6.733-6.351 3.017-12.691 6.064-18.989 9.204-5.072 2.043-9.75 4.901-14.822 6.938-2.97 1.491-5.923 3.011-8.805 4.667-2.661 1.262-5.414 2.354-7.961 3.833zm67.903 57.866c-3.904 4.132-8.224 7.842-12.139 11.957-3.939 4.655-8.758 8.458-12.826 12.99-3.739 3.317-7.038 7.103-10.912 10.278-1.28 1.045-2.307 2.371-3.616 3.387-1.303 0.458-2.272-0.734-3.176-1.45-3.346-3.475-6.909-6.727-10.249-10.208-3.258-3.035-5.794-6.715-8.869-9.92-0.816-0.816-1.403-1.814-1.82-2.87 3.252-2.647 7.255-4.144 10.536-6.756 3.528-2.941 7.062-5.87 10.636-8.752 17.34-13.571 34.732-27.078 52.09-40.614 5.119-4.08 10.325-8.053 15.191-12.438 3.451-3.058 7.173-5.77 10.83-8.564 1.931-2.072 4.678-3.105 6.551-5.236-2.395-5.383-7.091-9.492-8.864-15.174 1.591 1.344 2.747 3.093 4.044 4.719 6.392 7.191 12.656 14.616 20.328 20.515-1.737 0.781-3.205 2.007-4.473 3.41-2.788 3.088-6.116 5.682-8.523 9.116-7.913 8.329-15.913 16.559-23.996 24.724-7.183 6.693-13.822 13.936-20.743 20.886zm29.772 82.619c-0.593 0.745-1.679 0.704-2.459 0.323-3.622-1.385-7.261-2.859-10.501-5.013 1.902-2.595 4.25-4.854 5.829-7.672 1.08-2.043 2.659-3.78 3.551-5.929 0.963-2.254 2.63-4.079 3.851-6.181 1.82-2.718 3.123-5.741 5.001-8.417 1.415-1.99 2.09-4.438 3.751-6.257 1.949-2.054 2.964-4.743 4.719-6.938 4.168-6.674 8.552-13.225 12.162-20.228 1.708-2.096 2.6-4.69 4.262-6.809 1.614-2.213 2.501-4.849 4.15-7.038 1.696-2.988 3.675-5.805 5.218-8.875 0.71-1.368 1.878-2.407 2.712-3.681 1.514-2.43 2.553-5.16 4.379-7.39 2.049-2.36 3.234-5.289 5.177-7.731 1.35-3.223 3.463-5.982 5.306-8.917-4.579-4.338-10.073-7.508-14.757-11.699 5.072 1.497 9.28 4.813 13.988 7.114 2.448 1.473 5.717 2.747 6.563 5.747-1.027 4.291-3.493 8.059-4.837 12.245-2.166 3.68-4.044 7.549-6.475 11.094-2.994 5.776-6.51 11.247-9.345 17.111-3.07 4.661-5.864 9.492-8.453 14.44-1.638 2.002-2.753 4.32-3.933 6.609-2.283 3.328-3.657 7.161-5.829 10.56-3.915 6.41-7.243 13.149-10.854 19.729-1.297 2.911-3.328 5.43-4.596 8.365-1.35 2.829-3.041 5.482-4.672 8.159-1.36 2.39-1.929 5.26-3.908 7.279zm18.855-1.156c-1.432 2.941-2.542 6.034-4.291 8.817-4.156-0.634-7.848-2.829-11.405-4.931 0.411-3.598 2.295-6.745 3.745-9.985 0.969-2.084 2.389-3.898 3.475-5.905 5.148-9.451 10.478-18.813 15.62-28.264 1.098-3.516 3.915-6.116 5.265-9.539 4.608-7.913 9.292-15.772 13.747-23.773 1.902-2.166 2.049-5.829 4.884-7.067-3.316 8.94-6.639 17.856-9.738 26.872-0.98 3.199-2.964 5.993-3.604 9.31-2.911 7.795-5.976 15.544-8.846 23.362-0.898 3.992-3.61 7.249-4.714 11.17-0.376 1.268-1.086 2.401-1.679 3.581-1.056 2.026-1.268 4.38-2.459 6.352zm50.763-102.4c-1.679 5.389-5.013 10.049-6.88 15.373-2.225 4.784-4.232 9.656-6.017 14.616-3.064 4.89-4.59 10.554-7.167 15.708-2.988 7.155-6.557 14.035-9.721 21.114-1.303 3.827-3.71 7.161-5.13 10.947-2.935 6.586-5.459 13.407-9.21 19.6-0.998 1.485-1.109 3.516-2.536 4.69 0.652-3.845 2.16-7.49 4.044-10.883 1.767-3.851 2.8-7.983 4.52-11.851 0.804-1.726 0.746-3.739 1.743-5.377 2.319-4.226 3.727-8.84 5.394-13.336 2.377-4.52 3.598-9.515 5.753-14.129 1.79-3.986 2.33-8.376 4.138-12.339 1.168-2.636 1.884-5.441 3.093-8.054 1.297-2.771 1.861-5.811 3.211-8.558 0.974-1.972 0.933-4.273 2.019-6.199 1.045-2.002 1.573-4.215 2.636-6.204 0.886-1.602 0.828-3.592 2.025-5.031 1.133-1.397 1.309-3.27 2.319-4.731 1.203-1.779 2.207-3.669 3.305-5.512 2.254 0.329 4.267 1.444 6.304 2.418-1.448 2.49-3.039 4.938-3.843 7.738zm1.978-10.683c-0.382-2.219-1.808-4.872-0.135-6.862 3.305-5.077 5.547-10.765 8.787-15.89 2.383-5.066 5.852-9.509 8.224-14.587 1.514-3.416 3.915-6.345 5.576-9.685 1.168-2.671 2.953-5.001 4.138-7.666 0.769-1.321 1.55-3.305 3.434-3.005 1.016-0.229 1.779 0.546 2.266 1.35 0.247 1.978 0.241 4.033-0.276 5.981-1.362 6.322 0.252 12.914-1.385 19.195-0.252 1.508 0.288 3.041-0.047 4.549-0.475 2.835-0.305 5.747-0.898 8.564-0.323 1.28 0.182 2.612-0.182 3.898-0.781 3.228-0.217 6.58-0.704 9.85-1.18 4.438-0.634 9.093-1.203 13.618-3.381-0.464-6.674-1.473-9.955-2.383-1.82-0.381-2.63-2.154-3.628-3.493-1.914 0.223-3.909 0.839-5.776 0.053-2.801-1.028-5.559-2.202-8.236-3.487zm19.265 150.65c-3.305-0.423-6.68-0.669-9.844-1.773 0.528-3.17 2.119-6.028 2.823-9.151 1.467-4.297 2.002-8.875 3.757-13.066 1.861 0.117 4.115-0.563 5.629 0.851 0.734 4.614-1.109 9.175-1.004 13.824-0.61 3.081-0.533 6.281-1.361 9.315zm-0.746 319.66c2.483-0.164 4.896-0.992 7.408-0.88 7.437 0.053 14.874 6e-3 22.312 0.029 11.171-0.276 22.347 0.153 33.529-0.029 0.387 1.01 0.61 2.131 0.182 3.193-0.98 2.988-1.972 5.976-2.794 9.016-0.816 2.313-1.855 4.555-2.377 6.974-3.017 9.046-6.398 17.956-9.345 27.025-1.743 3.71-2.8 7.678-4.385 11.464-1.532 5.541-3.375 11-5.33 16.412-1.961 5.406-3.182 11.053-5.23 16.424-1.749 3.845-2.107 8.206-4.162 11.928-1.409-2.195-1.761-4.796-2.565-7.208-2.36-6.357-3.962-12.961-6.516-19.247-4.696-14.833-9.973-29.49-14.428-44.406-2.865-6.645-4.602-13.7-6.985-20.51-0.276-3.4 0.504-6.798 0.686-10.185zm80.753 375.96c-2.195 1.603-5.019 1.25-7.549 1.779-3.475 0.816-7.068 0.54-10.578 1.074-3.821 0.053-7.508 1.127-11.235 1.808-4.496 0.059-8.963 0.599-13.454 0.705-3.939 0.786-8.018 0.411-11.892 1.561-7.719 0.892-15.356 2.383-23.127 2.724-1.591 0.147-3.187 0.223-4.755 0.522-3.945 1.039-8.2-0.399-11.975 1.456-4.056 0.317-8.147 0.264-12.209 0.593-0.141-2.647 1.121-5.066 1.691-7.584 0.969-3.968 2.518-7.748 3.645-11.664 1.268-5.793 3.798-11.211 5.248-16.952 1.368-5.524 3.375-10.854 4.778-16.36 0.563-2.078 0.775-4.232 1.415-6.281 3.446-11.487 7.155-22.899 10.12-34.527 1.685-5.019 2.524-10.284 4.432-15.227 1.391-4.537 3.416-8.881 4.238-13.577 1.491-4.514 2.26-9.222 3.886-13.694 2.448-8.147 4.743-16.33 7.15-24.483 2.395-9.409 5.5-18.614 7.895-28.011 0.71-2.131 1.385-4.267 2.09-6.387 1.051 1.432 1.374 3.223 1.89 4.901 0.933 3.569 2.125 7.079 2.876 10.707 0.757 2.459 0.839 5.083 1.802 7.496 1.297 3.363 1.743 6.973 3.035 10.343 1.192 3.939 2.823 7.76 3.563 11.834 2.013 7.731 3.616 15.585 6.246 23.134 0.652 4.42 2.418 8.535 3.551 12.837 0.734 3.622 2.301 7.015 2.97 10.66 2.424 8.235 4.197 16.635 6.686 24.847 2.495 10.472 5.541 20.815 8.042 31.292 1.344 3.757 2.013 7.696 3.152 11.523 1.368 4.408 2.477 8.893 3.768 13.331 0.558 1.802 0.704 3.687 0.675 5.583-0.213 1.607 1.19 2.74 1.93 4.037zm-110.26-10.454c1.192-4.244 0.393-8.688 1.027-12.99 1.632-6.927 0.616-14.176 1.984-21.138 0.235-4.555-0.088-9.181 0.922-13.659 0.757-4.426 0.282-8.981 1.215-13.383 0.341-4.714 0.569-9.445 1.45-14.088 0.141-8.206 0.704-16.389 1.644-24.548 0.657-4.567 2.471-8.828 3.815-13.207 3.082-7.901 5.471-16.06 8.241-24.067 1.679-7.666 5.271-14.734 7.625-22.188 1.385-5.665 3.804-11.018 5.195-16.682 3.011-10.419 6.88-20.574 10.032-30.958 1.526-3.974 2.524-8.1 3.845-12.139 1.538 0.922 1.485 2.923 1.867 4.496 0.745 7.056 3.751 13.577 5.406 20.433 2.031 4.813 2.688 10.038 4.496 14.921 0.951 2.682-6e-3 5.453-1.062 7.942-2.683 8.406-4.737 16.988-7.625 25.335-2.248 8.089-4.056 16.318-6.715 24.296-1.949 4.531-2.729 9.439-4.074 14.164-4.168 14.587-9.421 28.874-12.75 43.69-1.262 4.121-2.236 8.329-3.81 12.356-1.826 5.083-2.964 10.378-4.637 15.514-1.861 8.077-4.35 15.996-6.527 24.002-2.16 5.976-3.686 12.151-5.835 18.132-1.708 5.465-3.164 11-4.813 16.489-0.822-0.088-1.638-0.159-2.442-0.217-0.235-3.446 0.323-6.891 0.957-10.255-0.041-4.092 0.035-8.201 0.569-12.251zm57.367-191.35c-1.409-5.465-3.293-10.795-4.89-16.201-1.021-4.937-2.594-9.75-3.475-14.71-0.434-2.213 0.769-4.267 1.162-6.381 0.563-2.782 2.013-5.271 2.624-8.03 0.745-3.264 2.888-6.005 3.44-9.327 1.004-2.876 1.215-6.005 2.589-8.746 1.021-0.164 1.18 0.945 1.485 1.673 1.051 3.317 2.031 6.651 3.029 9.991 1.82 4.584 3.234 9.321 4.849 13.988 1.192 3.023 1.462 6.351 2.988 9.263 1.016 1.843-0.2 3.839-0.575 5.7-2.225 6.938-3.862 14.041-6.146 20.967-0.963 3.005-1.837 6.058-2.518 9.151-0.235 1.209-1.086 2.149-1.802 3.117-1.087-3.446-1.92-6.95-2.76-10.455zm10.86-44.318c-0.681-2.9-2.354-5.441-2.882-8.37-0.716-2.037-1.661-3.991-1.949-6.146-0.616-3.745-3.14-7.185-2.559-11.065 1.867-4.813 2.929-9.897 4.86-14.687 1.579-5.547 3.774-10.895 5.301-16.459 1.068-3.51 2.096-7.044 3.557-10.419 0.857-2.688 1.403-5.482 2.612-8.053 2.225-6.504 4.455-13.008 7.056-19.365 1.585-5.982 4.256-11.605 5.811-17.598 1.327-3.258 1.491-7.032 3.698-9.885 0.927 1.397 0.563 3.14 0.886 4.714 0.71 3.029 0.252 6.158 0.611 9.233 0.106 3.07 0.869 6.064 1.068 9.128 0.335 3.234 0.094 6.516 0.745 9.726 0.446 2.09 0.376 4.244 0.505 6.381 0.117 3.422 0.687 6.844 0.34 10.272-1.479 6.134-3.428 12.139-5.336 18.15-1.057 5.618-3.792 10.748-4.655 16.412-1.609 5.823-2.964 11.728-4.813 17.486-2.16 5.453-3.299 11.229-5.342 16.724-1.115 4.884-2.911 9.574-4.039 14.452-0.235 0.828-0.986 1.368-1.508 2.031-1.584-4.132-2.353-8.535-3.967-12.662zm-42.006-80.817c0.059-6.07 0.769-12.11 0.787-18.167 1.021-4.672 0.47-9.48 1.315-14.17 1.925 2.019 2.113 4.925 2.953 7.467 0.845 3.774 2.7 7.202 3.71 10.936 1.937 5.436 3.61 10.959 5.365 16.465 4.344 12.022 7.866 24.325 12.286 36.317 1.303 3.234 1.644 6.756 2.982 9.985 1.139 3.223 3.317 6.604 2.101 10.137-1.737 4.344-2.953 8.87-4.273 13.348-1.303 2.929-2.325 5.97-3.352 9.01-0.875 2.219-1.104 4.719-2.641 6.645-1.602-4.273-2.471-8.77-3.763-13.125-2.371-7.062-3.475-14.493-6.128-21.454-0.957-3.616-1.28-7.396-2.636-10.901-1.098-2.806-1.749-5.747-2.454-8.658-0.546-2.454-1.737-4.702-2.254-7.161-1.268-5.154-2.612-10.284-3.898-15.426-1.479-3.611-0.651-7.55-0.1-11.248zm-14.264 174.01c0.393-1.221 0.517-2.495 0.464-3.751-0.129-3.352 0.587-6.662 0.423-10.002-0.123-1.626 0.235-3.199 0.622-4.749 0.135-4.878 0.323-9.797 1.192-14.604 0-4.508 0.47-8.975 0.628-13.466 1.162-4.631 1.092-9.421 1.145-14.147 0.475-2.917 1.133-5.817 1.068-8.781-0.059-1.996 0.828-3.868 0.681-5.858-0.235-4.549 0.54-9.051 1.215-13.518-0.029-4.438 0.123-8.887 0.787-13.278 0.704-2.947 0.34-5.999 0.775-8.975 0.194-1.79 0.851-3.51 0.775-5.318-0.029-4.309 0.329-8.599 0.622-12.89 0.282-1.415 0.493-2.829 0.27-4.25 0.076-2.53 0.522-5.036 0.481-7.561-0.1-2.6 0.834-5.077 1.027-7.637 0.288-2.688 0.399-5.389 0.534-8.071 0.247-0.158 0.745-0.469 0.992-0.622 1.649 5.53 2.225 11.347 4.444 16.7 1.597 6.339 3.827 12.515 5.183 18.919 0.552 3.005 2.278 5.682 2.495 8.776 0.147 2.172 1.086 4.156 1.767 6.204 1.843 7.314 3.968 14.557 5.858 21.86 0.44 1.82 1.303 3.851 0.434 5.688-2.049 4.197-2.559 8.928-4.32 13.248-0.757 3.657-2.542 6.973-3.581 10.554-1.391 4.772-2.876 9.515-4.508 14.217-1.779 7.261-4.843 14.123-6.891 21.308-3.047 8.411-6.034 16.853-8.505 25.458-0.986 4.414-3.117 8.464-4.221 12.861-1.174 2.859-1.503 6.116-3.281 8.705-1.151-4.502 0.17-9.163 0.053-13.718 1.437-4.321-0.025-8.981 1.372-13.302zm-15.015-273.81c-2.043 3.135-3.281 7.161-6.662 9.157-2.078 0.781-3.898-0.798-4.361-2.753-0.452-5.477 0.74-10.877 1.209-16.301 0.769-2.882 1.016-5.846 1.197-8.805 0.745-3.299 0.593-6.698 1.092-10.026 0.892-3.757 0.64-7.66 1.561-11.417 0.98-3.786 0.417-7.748 1.309-11.54 0.511-2.565 0.446-5.207 1.109-7.737 0.616-2.6 0.358-5.306 0.81-7.919 0.845-3.082 0.37-6.298 0.54-9.439 1.931-1.063 4.168-1.526 5.958-2.859 2.988-2.506 5.101-5.835 7.842-8.582 0.499-0.581 1.209-0.875 1.902-1.151 0.076 1.761 0.205 3.557-0.123 5.318-0.886 3.751-0.505 7.678-1.462 11.429-0.493 4.443-0.364 8.975-1.327 13.366-0.458 2.131-0.511 4.314-0.634 6.492-0.957 4.678-1.872 9.398-1.937 14.199-0.2 3.487-0.153 7.015-1.016 10.425 0.012 5.682-0.992 11.288-1.655 16.917-0.47 1.92-0.669 3.915-1.321 5.794-1.049 2.016-2.927 3.442-4.031 5.432zm3.047 147.34c0.851-6.028 1.937-12.051 2.242-18.144-0.123-2.612 0.704-5.119 0.816-7.707 0.493-7.15 1.972-14.182 2.477-21.331 0.293-3.716 0.939-7.384 1.274-11.088 0.252-2.043 0.023-4.185 0.927-6.087 0.223-0.082 0.681-0.241 0.91-0.323 0.135 9.063-1.391 18.026-1.25 27.084-0.927 4.455-1.256 8.987-1.567 13.524-0.088 2.072 0.211 4.191-0.264 6.251-0.857 3.129-0.07 6.392-0.517 9.586-0.922 7.196-1.561 14.446-1.626 21.713-0.558 2.612-3.228 3.915-5.166 5.441-0.405-6.375 1.356-12.597 1.744-18.919zm-7.907 68.455c0.552-3.839 0.481-7.772 1.409-11.552 0.17-7.067 1.391-14.041 1.761-21.091 0.065-2.506 1.098-4.831 1.485-7.273 0.475-1.925 0.012-3.974 0.634-5.846 1.485-1.203 3.264-1.961 4.978-2.771-1.045 7.578-1.949 15.186-2.647 22.817-0.693 2.759-0.464 5.612-0.787 8.423-0.223 3.686-0.963 7.32-1.186 11.018-0.106 6.545-1.784 12.937-2.319 19.453-0.047 3.739-1.121 7.361-1.274 11.1 0.018 2.894-0.892 5.682-1.673 8.441-0.88 2.371-1.99 5.289-4.796 5.852-0.558-5.066 1.45-9.879 1.297-14.904 0.094-2.565 0.452-5.113 0.969-7.613 0.076-2.307 0.258-4.596 0.798-6.838 0.823-3.023 0.523-6.205 1.351-9.216zm-17.387-45.985c-3.017 0.164-6.703 0-8.482-2.853-1.356-3.44-0.434-7.22-0.147-10.771 0.98-5.242 1.996-10.495 2.319-15.825 0.927-3.434 0.681-7.015 1.198-10.495 0.992-3.252 0.745-6.674 1.227-9.996 0.927-3.945 0.499-8.065 1.473-11.992 0.517-2.272 0.558-4.608 0.652-6.915 0.018-2.254 0.927-4.373 0.992-6.615 0.112-2.595 0.998-5.066 1.121-7.654 0.112-1.89 0.546-3.722 1.098-5.512 1.297 0.922 2.542 1.949 4.003 2.635 3.34 0.628 6.903-0.393 10.149 0.476 1.004 1.82 0.405 4.115 0.241 6.116-0.904 3.645-0.769 7.426-1.121 11.147-0.047 2.424-0.992 4.725-1.033 7.156-0.053 1.984-0.17 3.986-0.675 5.923-0.575 3.534-0.117 7.202-1.098 10.689-0.599 2.054-0.423 4.226-0.587 6.357-0.27 6.651-2.301 13.084-2.6 19.735-0.822 3.716-0.792 7.56-1.679 11.27-0.475 2.007 0.352 4.32-0.787 6.152-1.779 1.348-4.192 0.743-6.264 0.972zm1.192 205.24c0.141-3.88 0.558-7.742 0.657-11.616 0.81-2.647 0.164-5.406 0.699-8.089 0.616-3.628 0.023-7.337 0.822-10.924 0.2-3.428-0.023-7.05 1.538-10.208 0.1-0.863 1.379-0.875 1.438-6e-3 1.649 8.077 0.135 16.336 0.088 24.489-2.131 9.85-3.293 19.887-4.555 29.884-0.123 7.531-2.518 14.845-2.495 22.382-0.288 0.029-0.863 0.082-1.156 0.106-0.423-5.195 1.327-10.219 1.139-15.397-0.164-3.381 0.939-6.645 0.745-10.02 0.604-3.522 0.023-7.161 1.08-10.601zm-1.673-15.608c0.945-0.317 1.262 0.012 0.957 0.98-0.969 0.294-1.286-0.035-0.957-0.98zm-3.135 25.628c0.293-4.913 1.133-9.75 1.826-14.604-0.023-3.217 0.311-6.516 1.479-9.521 0.517 4.332-0.481 8.652-0.299 13.008-0.951 5.019-1.151 10.161-1.139 15.274-1.397 8.089-0.698 16.406-2.125 24.507-0.159 1.567-0.223 3.14-0.299 4.737-1.033 0.669-2.119 1.286-3.334 1.579 1.168-4.22 0.358-8.729 1.321-13.014 0.875-3.187 0.605-6.545 1.332-9.756 0.422-4.068 0.446-8.183 1.238-12.21zm-7.895 73.368c-0.088-1.344 0.376-2.782 1.661-3.387 1.467-0.258 2.964-0.105 4.449-0.059 1.28 2.853 1.291 6.011 2.201 8.975 0.64 2.401 0.605 4.919 0.405 7.396-3.187 0.053-6.369 0.012-9.556 0.03-1.05-4.314 0.999-8.623 0.84-12.955zm5.571-16.489c-0.787 0.018-1.567 0.047-2.342 0.094 0.164-2.319 0.857-4.684 2.307-6.521 0.622 0.91-0.053 1.949-0.047 2.964-0.024 1.133 0.052 2.29 0.082 3.463zm-0.611-12.297c-0.787 2.014-1.25 4.232-2.653 5.958 0.352-3.728-0.159-7.684 1.556-11.141 0.411-1.151 1.544-1.743 2.459-2.419 0.223 2.607-0.698 5.107-1.362 7.602zm-8.922-85.895c-2.823 6e-3 -5.576 1.421-8.382 0.61-1.368-0.37-2.771-0.628-4.05-1.215-2.782-2.336-2.994-6.387-2.501-9.721-0.053-4.015 1.28-7.848 1.538-11.822 0.933-5.753 1.321-11.581 2.765-17.24 1.379-9.292 2.8-18.584 4.009-27.888 0.035-1.702 0.247-3.375 0.704-5.001 0.669-2.506 0.716-5.119 1.198-7.649 0.716-2.583 0.247-5.271 0.522-7.889 1.415 0.804 2.6 1.943 3.968 2.829 3.798 0.27 7.625-0.106 11.435 0.194-1.115 4.109-0.393 8.453-1.285 12.615-0.699 2.682-0.358 5.535-1.151 8.212-0.71 2.148-0.687 4.432-0.722 6.674 0.1 2.882-1.104 5.6-1.051 8.5 0.088 2.835-1.25 5.447-1.262 8.277-0.1 1.573-0.135 3.17-0.522 4.725-0.769 2.882-0.493 5.923-1.18 8.828-0.839 3.005-0.452 6.169-0.822 9.239-1.186 4.532-0.922 9.286-1.755 13.888-0.323 1.275-0.188 3.042-1.456 3.834zm-14.516 137.68c0.763 4.373-1.145 8.517-1.145 12.861-0.112 1.972-0.986 3.833-0.845 5.852 0.082 2.888-1.244 5.583-1.151 8.47-0.053 3.252-0.065 6.75-1.99 9.55-1.808-0.693-3.786-0.763-5.606-0.088-2.636 0.845-5.571-0.106-7.513-1.972-2.008-3.164-1.473-7.144-0.845-10.63 0.558-2.571 0.282-5.23 0.98-7.76 0.951-7.208 1.397-14.493 2.595-21.66 0.035-4.567 1.327-8.987 1.338-13.548 0.264-1.497-0.382-3.821 1.544-4.361 3.757-0.81 7.602-1.051 11.44-0.81 2.401 2.988 1.919 6.897 1.074 10.372-0.493 1.52-0.188 3.721-1.972 4.444-0.963 0.704-2.436 1.268-2.559 2.647 1.15 2.472 3.011 4.491 4.655 6.633zm-4.99-36.299c-2.143 0.71-4.432 0.381-6.639 0.37-0.616-3.974 0.892-7.766 0.775-11.705 0.041-1.385 0.264-2.747 0.44-4.091 1.79 0.687 3.381 1.814 5.201 2.436 3.093 0.546 6.251 0.205 9.374 0.481 0.076 3.681-0.558 7.326-0.693 11.006-2.77 0.828-5.722 0.552-8.458 1.503zm13.765 140.17c-0.599 2.548-0.229 5.224-0.951 7.766-0.628 2.448-0.963 5.007-2.025 7.331-0.669 1.438-2.055 2.319-3.346 3.158-0.569-3.833 0.957-7.49 0.722-11.3-0.299-2.647 1.403-4.966 1.197-7.584-0.059-3.328 0.393-6.633 0.517-9.944 1.004-2.964 0.34-6.14 1.385-9.075 0.763-3.839 0.428-7.819 1.274-11.646 0.775-3.845 0.558-7.795 1.309-11.634 0.593-3.305 0.452-6.686 1.215-9.955 0.54-2.753 0.082-5.647 1.086-8.3 0.605-1.456 0.053-3.123 0.751-4.526 0.98-1.268 2.313-2.184 3.569-3.14 0.088 3.575 6e-3 7.208-0.851 10.707-0.194 3.164-0.323 6.357-1.033 9.468-0.487 4.76-0.188 9.609-0.922 14.346-1.139 3.68-0.54 7.602-1.597 11.3-0.892 2.976 0.059 6.157-0.845 9.145-0.921 4.567-0.257 9.351-1.455 13.883zm15.978-66.389c0.088 2.436-0.71 4.76-1.239 7.12-1.82 6.774-2.407 13.794-4.033 20.615-0.904 7.666-3.463 15.021-4.273 22.705-1.239 6.427-2.46 12.867-3.534 19.324-0.276 1.021-0.64 2.125-1.579 2.747 0.159-4.854 0.939-9.662 1.556-14.469 0.282-2.213-0.076-4.479 0.534-6.633 1.016-3.98 0.423-8.147 1.462-12.11 0.106-3.774 1.315-7.378 1.497-11.129 0.387-3.78-0.205-7.619 0.575-11.353 0.816-4.578 0.693-9.251 1.556-13.818 0.053-3.17 1.544-6.381 0.37-9.48l-1.644 0.071c-1.027 1.168-2.195 2.225-3.563 2.999-0.17-4.396 0.652-8.729 1.28-13.049 0.164-3.551 1.062-7.003 1.233-10.536-0.012-0.757 0.27-1.42 0.728-1.967 3.258 4.919 5.324 10.478 8.371 15.526 0.863 1.655 2.013 3.287 2.043 5.242 0.456 2.841-1.369 5.371-1.34 8.195zm1.908-12.855c-1.826-3.005-3.176-6.269-5.078-9.216-1.503-2.36-2.454-4.995-3.704-7.478-0.792-1.667-1.949-3.211-2.096-5.095 3.516-0.076 6.715 1.655 10.108 2.342 1.767 0.552 4.385 0.781 4.69 3.07-0.681 3.516-1.403 7.05-2.219 10.554-0.457 1.948-0.498 4.126-1.701 5.823zm3.762 3.962c-0.088 0.839-0.722 1.391-1.567 1.409-0.317-3.886 0.37-7.819 2.184-11.276 0 3.292-0.194 6.591-0.617 9.867zm0.147-38.607c-0.475-1.221-0.886-2.465-1.186-3.716 1.732 0.358 3.452 1.673 3.633 3.545-0.821 0.042-1.637 0.095-2.447 0.171zm3.499-7.795c-1.362 1.115-3 1.825-4.584 2.571-1.327-3.416-1.655-7.067-2.289-10.642-0.135-1.679 1.955-0.969 2.941-0.91 0.417 2.366 3.076 2.859 4.344 4.643 0.222 1.432 0.157 2.97-0.412 4.338zm5.881-59.721c0.023 2.33-0.54 4.614-0.728 6.944-0.393 2.87 0.323 5.835-0.675 8.635-0.775 2.154-0.393 4.461-0.464 6.709 0.035 3.728-0.552 7.437-0.452 11.176-0.094 0.939 0.217 2.143-0.681 2.818-0.951 1.021-2.524 0.646-3.757 0.998-2.342 0.076-5.072 1.825-7.114 0-0.434-1.743-0.247-3.563 0.164-5.271 0.816-4.279-0.2-8.764 1.198-12.949 0.886-3.516 2.823-6.633 3.792-10.12 2.06-5.706 3.839-11.505 5.682-17.275 0.652-3.281 2.031-6.298 3.475-9.28 0.112 5.876-0.522 11.734-0.44 17.615zm8.923-117.93c-0.558 4.215-0.159 8.5-0.91 12.703-1.192 5.465-0.141 11.194-1.567 16.635-0.258 3.88 0.023 7.813-0.522 11.687-1.379 4.966-0.587 10.178-1.244 15.262-1.409 6.21 0.012 12.744-1.591 18.942-0.176 0.969 0.194 1.966 0.029 2.964-0.616 3.569-0.012 7.331-1.538 10.73-0.593 4.038-2.929 7.49-3.898 11.423-0.969 2.812-1.438 5.776-2.624 8.523-0.751 1.491-0.54 3.586-2.096 4.573-0.305-3.657 0.933-7.179 1.057-10.807-6e-3 -2.448 0.693-4.79 0.998-7.185 0.112-4.303 1.421-8.435 1.415-12.744 0.716-3.804 1.485-7.613 2.066-11.441 0.364-4.602 0.382-9.216 0.329-13.818-0.053-4.038 0.346-8.159-0.763-12.098-0.587-1.555-2.483-1.45-3.768-2.031 0.699-2.982 0.317-6.075 0.781-9.081 0.475-2.97-6e-3 -5.987 0.417-8.94 0.804-2.53 0.434-5.195 0.798-7.778 0.117-2.189 0.875-4.273 0.939-6.457 0.117-3.557 0.229-7.138 0.951-10.63 0.487-2.782 0.411-5.629 0.992-8.388 0.716-3.434 0.481-6.991 1.409-10.378 0.252-3.264 0.652-6.51 1.403-9.691 2.008-1.256 4.05-2.571 5.617-4.349 3.393-5.618 3.645-12.368 4.226-18.725 0.264-0.158 0.787-0.481 1.045-0.64 0.235 1.814-0.023 3.622-0.622 5.359-0.27 3.287-0.07 6.615-0.434 9.908-0.986 5.518-0.693 11.188-0.98 16.759-2.109 6.37-0.841 13.186-1.915 19.713zm129.68 208.32c-1.878 3.146-2.841 6.745-4.901 9.797-2.859 5.377-5.676 10.789-8.482 16.201-2.677 5.471-5.97 10.595-8.57 16.101-2.547 4.191-4.989 8.458-6.926 12.967-2.148 4.766-4.972 9.169-7.443 13.765-2.964 6.304-6.369 12.385-9.574 18.572-2.835 4.737-4.884 9.879-7.607 14.675-1.25 2.612-2.759 5.107-3.927 7.772-1.145 2.647-2.923 4.948-4.226 7.519-0.98 1.832-1.749 3.874-3.381 5.26-2.395-3.164-3.334-7.126-5.582-10.378-2.002-4.203-4.338-8.224-6.48-12.344-3-5.624-5.547-11.482-8.922-16.888-2.759-5.635-5.852-11.106-8.394-16.841-3.17-5.659-6.287-11.352-9.222-17.128-1.814-3.998-3.739-7.936-6.034-11.676-3.428-6.433-6.58-13.002-9.815-19.529-2.771-4.714-5.083-9.668-7.872-14.37-1.485-2.266-0.716-5.025-0.599-7.52 1.937-1.761 4.608-1.221 6.991-1.262 8.417-0.018 16.841 0.059 25.264-0.035 7.596-0.787 15.238-0.452 22.863-0.522 13.695 0.434 27.401-0.117 41.101 0.041 1.749-0.247 3.463-0.851 5.265-0.675 7.062 0.165 14.117-0.182 21.173-0.229 2.753-0.147 5.524-0.217 8.259 0.229-0.235 2.442-1.879 4.379-2.959 6.498zm2.142-14.31c-4.367 1.121-8.893 0.722-13.348 0.792-16.248 0.018-32.49-0.041-48.738 0.029-8.001 0.634-16.031 0.158-24.043 0.534-3.704 0.129-7.42-0.141-11.123 0.106-3.686 0.763-7.461 0.446-11.188 0.487-4.502 0.024-8.999 6e-3 -13.495 0.024-2.36-0.024-4.79 0.147-7.038-0.675-6e-3 -0.411-0.018-1.239-0.023-1.649 7.631-0.229 15.291 0.358 22.893-0.435 7.05 0.041 14.1 0.071 21.143-0.182 3.363 0.1 6.792-0.352 10.102 0.434 3.493 0.681 6.938-0.693 10.443-0.446 7.42-0.158 14.898 0.534 22.265-0.558 14.317 0.023 28.645-0.147 42.956 0.094 0.175 0.752-0.089 1.233-0.806 1.445zm-8.564-10.566c-3.358-0.558-6.791-0.117-10.126-0.833-10.108-1.145-20.193-2.565-30.336-3.223-4.854-1.133-9.873-1.021-14.822-1.01-3.457 0.023-6.457-2.272-9.92-2.184-3.545-0.399-7.044 0.869-10.578 0.252-2.325-0.47-4.696-0.511-7.05-0.417-0.059 2.518-0.053 5.048 0.012 7.584 3.099 0.886 6.386 0.804 9.556 1.385-1.779 1.685-4.485 0.857-6.686 0.939-2.9-0.516-5.835-0.646-8.776-0.534-10.249 0.088-20.515 0.464-30.764 0.276-0.652-3.211 0.235-6.41 0.205-9.621-0.082-3.117 0.775-6.14 1.526-9.122 2.195-1.902 5.248-1.473 7.93-1.479 2.6 0.141 4.978-1.285 7.572-1.186 4.156 0.053 8.353-6e-3 12.391-1.074 3.733-0.106 7.42-0.71 11.112-1.221 4.338 0.018 8.599-0.875 12.902-1.227 4.355 0.223 8.658-0.54 12.949-1.156 6.281-0.563 12.532-1.333 18.76-2.319 4.719 6e-3 9.421-0.517 14.088-1.162 3.815 0.094 7.384-1.497 11.176-1.655 2.729-0.065 5.377-0.969 8.118-0.74 1.156 2.512 2.659 4.854 3.898 7.337 1.438 3.299 3.968 5.958 5.412 9.269 2.6 4.162 1.297 9.204 1.849 13.806-3.501 0.524-6.917-0.533-10.398-0.685zm8.423-25.311c0.622 2.776 0.634 5.635 0.716 8.476-2.125-1.638-2.841-4.25-3.839-6.586-1.526-2.072-3.217-4.115-3.657-6.727 1.139-0.27 2.289-0.528 3.446-0.757 0.558 0.358 1.139 0.728 1.714 1.115 0.44-0.405 0.886-0.787 1.344-1.156 0.452 0.041 1.362 0.112 1.82 0.153-0.088 1.965-2.201 3.415-1.544 5.482zm23.645 56.386c1.497 0.07 1.708 1.749 2.272 2.847 1.162 3.199 2.219 6.668 1.714 10.096-0.558 1.468-1.168 3.639-3.017 3.78-0.271-5.588-1.275-11.106-0.969-16.723zm-1.11-10.302c0.305 0.012 0.916 0.035 1.221 0.047-6e-3 1.168-0.029 2.354-0.106 3.551-1.05-0.933-1.127-2.312-1.115-3.598zm4.819 0.27c0.235 2.26 1.162 4.367 1.62 6.598-0.258 0.164-0.763 0.499-1.016 0.669-2.013-2.882-2.236-6.533-2.454-9.92 1.978-0.3 3.998-0.352 5.97 0.088-0.985 1.362-2.646 1.902-4.12 2.565zm4.702 12.685c-0.117 1.415-0.528 3.68-2.236 3.886-0.892-2.412-1.884-4.878-1.814-7.478 1.79 0.487 3.375 1.855 4.05 3.592zm6.704 111.5c-0.041-1.831 0.053-3.651-0.094-5.453-1.544 0.147-1.597 1.855-2.031 3.005-0.534 2.037-1.978 3.68-2.565 5.706-0.299 0.904-0.699 1.796-1.221 2.624 0.317-3.622-0.816-7.073-1.063-10.631 0.135-3.346-0.528-6.656-0.335-9.99 0.194-2.013-0.599-3.909-0.769-5.87-0.323-2.876 0.07-5.805-0.511-8.635-0.974-3.346-0.241-6.862-0.828-10.255-0.599-3.305 0.288-6.539 0.593-9.797-0.669-0.575-1.796-0.928-1.855-1.92-0.81-7.572-0.875-15.191-1.432-22.775-0.792-5.359-1.198-10.777-1.309-16.184-0.129-1.567 0.833-2.882 1.438-4.232 0.669-1.227 0.98-3.07 2.683-3.146 0.082 3.469 1.086 6.809 1.837 10.184 0.828 2.571 0.71 5.324 1.362 7.948 0.657 3.551 2.09 7.032 1.532 10.712 0.669 1.567 1.62 3.035 1.867 4.784 0.81 4.52 1.943 8.963 2.929 13.454 0.481 2.518-0.787 5.518 1.139 7.625 1.016 2.049 0.663 4.514 1.509 6.668 1.133 3.14 1.614 6.639 0.288 9.814-0.599 4.138-2.078 8.177-1.896 12.415 0.745-0.241 1.192-0.722 1.333-1.444 0.593-2.072 0.792-4.227 1.403-6.281 0.018-0.851 0.816-1.08 1.438-1.373 0.634 3.481-0.863 6.774-1.655 10.096-0.863 2.929-1.749 5.876-2.189 8.922-0.319 1.382-0.325 3.108-1.598 4.029zm7.202-13.647c-1.156 3.622-1.491 7.49-3.023 11-0.44 0.927-0.106 2.594-1.52 2.63 1.197-5.189 1.696-10.531 3.487-15.573 0.492 0.516 1.496 1.021 1.056 1.943zm2.454-7.531c0.018 1.039-0.517 2.049-1.538 2.418-0.053-2.8-0.258-5.647 0.476-8.365 1.537 1.58 1.068 3.934 1.062 5.947zm-1.861-9.357c-0.27 0.922-0.082 2.612-1.532 2.342-0.434-3.487-0.634-7.279 1.074-10.466 2.025 2.319 0.922 5.442 0.458 8.124zm-8.729-84.691c0.076 4.332 1.444 8.494 1.479 12.832 0.1 3.616 1.338 7.12 1.139 10.771-0.141 3.187 1.197 6.21 0.974 9.409 0.012 1.984-0.217 3.974-0.376 5.964 2.184 0.71 1.702 3.334 1.884 5.142-0.059 3.581 0.998 7.038 1.198 10.601 0.135 2.383 0.857 4.69 0.963 7.091 0.17 3.252 1.796 6.48 0.693 9.75-0.81 1.919-0.587 4.238-2.084 5.852-1.151-2.8-1.239-5.87-2.201-8.717-0.646-3.645-1.649-7.326-1.203-11.053 0.159-1.473 0.1-3.252-1.538-3.804-1.244-2.013-0.74-4.573-1.409-6.774-1.884-7.144-3.023-14.452-4.825-21.607-0.957-2.477-0.329-5.142-0.464-7.695-0.428-2.113-2.26-4.109-1.174-6.328 2.037-3.07 3.399-6.504 4.872-9.855 0.317-0.922 1.18-1.391 2.072-1.579zm-1.297-11.511c-0.018 0.922-0.024 1.861-0.018 2.829-0.716 0-1.421 0.018-2.119 0.047-0.012-0.992 0-1.961 0.024-2.912 0.698-0.011 1.403 1e-3 2.113 0.036zm-2.06-12.885c-1.873-2.406-4.966-2.007-7.619-2.577-1.978-0.951-4.091-2.366-4.044-4.808-0.194-3.457-0.957-7.326 0.986-10.431-1.614-3.029-2.119-6.839-0.74-10.038 0.37-0.822 6e-3 -1.661-0.159-2.436-0.775-3.006-0.47-6.134-0.247-9.181 0.734 6e-3 1.468 0.035 2.213 0.076 2.002 4.138 3.129 8.617 4.714 12.926 1.415 4.684 3.528 9.222 3.874 14.17 0.687 4.058 1.333 8.161 1.022 12.299zm-3.522-40.203c0.663 1.027 0.2 2.436 0.487 3.633 0.828 3.769 1.098 7.66 1.109 11.523-1.133-0.986-1.286-2.542-1.696-3.868-1.004-3.886-3.463-7.431-3.522-11.517 1.197 0.041 2.448-0.123 3.622 0.229zm-13.313-113.17c0.986 1.978 0.217 4.267 0.875 6.345 1.203 3.27 0.041 6.85 1.057 10.173 1.315 3.71 0.428 7.736 1.397 11.528 0.757 2.624 0.276 5.418 0.922 8.071 1.133 2.882 0.54 6.07 1.356 9.046 0.886 3.064 0.217 6.322 1.127 9.392 0.716 2.501 0.751 5.113 0.822 7.707-6e-3 2.395 1.039 4.643 1.045 7.05-0.1 6.351 1.896 12.479 2.283 18.795 0.235 3.78 0.593 7.578 0.651 11.37-2.154 1.174-4.667 0.998-7.026 0.922-1.151-3.98-0.464-8.118-0.933-12.163-0.522-4.05-0.323-8.142-0.657-12.204-0.892-6.163 0.117-12.409-0.61-18.584-0.159-4.085-1.057-8.112-0.863-12.204-0.035-6.469-0.522-12.92-0.481-19.388 0.135-2.589-0.957-5.048-0.828-7.631 0.015-6.074-0.46-12.149-0.137-18.225zm-23.21-186.16c0.282 0.024 0.845 0.07 1.133 0.094 0.135 4.109 0.047 8.318 1.227 12.303 1.045 4.807 1.333 9.72 1.919 14.604 0.622 2.688 0.323 5.524 1.115 8.194 0.71 2.506 0.587 5.148 1.074 7.707 1.127 4.69 0.387 9.621 1.591 14.305 0.346 2.16-0.053 4.397 0.499 6.551 0.651 2.994 1.08 6.04 1.244 9.11 0.094 2.389 0.845 4.702 0.775 7.115-0.065 2.782 1.139 5.4 1.156 8.183 0.27 7.472 1.837 14.804 2.577 22.235 0.564 6.885 1.961 13.677 2.501 20.58 0.082 2.712 0.745 5.353 1.074 8.048 1.796 7.754 1.057 15.761 1.485 23.644 1.262 4.778 0.147 9.779 0.74 14.651 0.352 2.465-0.088 5.019 0.646 7.449 0.71 2.571 0.247 5.265 0.411 7.901 0.34 6.205-0.352 12.456 0.616 18.619 0.786 2.324 0.469 4.796 0.534 7.214 0.176 4.455 0.434 8.922 0.675 13.378-0.71 2.624 0.751 5.101 0.511 7.736-0.047 5.271 0.141 10.548 0.499 15.813 0.041 2.524 0.44 5.072-6e-3 7.596 1.127 3.481 0.575 7.185 0.564 10.783-0.217-0.1-0.646-0.293-0.857-0.387-0.522-3.634 0.176-7.349-0.816-10.924-0.035-4.326-0.986-8.576-0.833-12.914 0.141-3.569-1.033-7.02-0.98-10.578-0.217-5.107-1.203-10.131-1.198-15.244-0.675-6.257-1.356-12.497-1.626-18.778 0.088-2.583-0.88-5.054-0.669-7.637-0.252-3.739-0.1-7.543-1.057-11.188-0.135-3.727-0.663-7.42-1.215-11.094-0.106-5.418-0.211-10.853-0.81-16.23-1.021-3.745-0.61-7.666-1.509-11.417-0.082-5.254-0.276-10.513-0.704-15.743-0.886-3.862-0.833-7.836-1.168-11.752-0.804-3.68-0.898-7.449-1.074-11.188-0.969-4.631-0.933-9.398-1.145-14.1-0.17-1.99-0.963-3.857-1.068-5.841-0.159-2.453 0.188-4.943-0.493-7.32-0.74-4.99-0.323-10.102-1.303-15.056-0.581-4.995-0.81-10.032-0.886-15.045-1.303-4.485-0.458-9.21-1.52-13.73 0.106-4.637-1.35-9.081-1.567-13.689-0.933-4.578-0.863-9.233-1.168-13.871 0.11-3.413-1.44-6.642-0.894-10.087zm-0.851 211.09c1.409 7.478 0.675 15.186 2.09 22.676 0.112 4.69 0.828 9.327 1.227 14 0.399 2.988 0.059 6.064 0.875 9.004 0.44 4.044 0.54 8.124 0.687 12.204 0.716 3.258 0.886 6.61 1.162 9.944-0.317 3.522 1.286 6.909 0.593 10.443-0.475 0.833-1.462 0.663-2.272 0.751-2.718 0.029-5.412 1.021-8.136 0.464-1.239-0.405-2.266-1.233-3.322-1.943-0.188-1.503 0.094-3.176-0.822-4.461-1.561-2.313-1.972-5.148-2.771-7.76-1.749-7.625-4.168-15.074-6.034-22.67-1.227-5.659-3.052-11.159-4.373-16.782-0.998-3.798-1.614-7.731-3.393-11.258-1.808-9.674-4.725-19.124-7.179-28.651-0.963-4.309-2.865-8.329-3.839-12.626-1.661-8.324-4.755-16.283-6.392-24.613-2.477-9.374-5.635-18.555-8.024-27.953-1.25-5.26-2.935-10.401-4.197-15.649-0.728-3.434-1.673-6.815-2.8-10.126-0.734-2.184 0.405-4.291 1.051-6.316 1.244-4.972 3.187-9.75 4.273-14.763 1.779-5.089 3.105-10.325 4.397-15.555 0.299-0.816 0.34-2.166 1.561-1.796 1.626 2.624 1.925 5.811 3.328 8.552 0.963 1.82 0.986 3.945 1.714 5.864 1.344 3.639 2.049 7.502 3.692 11.047 1.092 2.413 1.462 5.06 2.407 7.531 1.485 2.765 1.632 5.981 2.923 8.84 1.89 4.303 2.624 8.981 4.127 13.424 2.835 8.946 6.498 17.592 9.263 26.561 1.849 7.584 4.966 14.775 7.02 22.306 3.792 10.901 6.727 22.077 10.49 32.989 0.744 2.019 0.416 4.208 0.674 6.322zm-16.084-188.77c0.528 2.272 0.558 4.62 0.786 6.938 0.37 2.829-0.135 5.729 0.81 8.488 0.082 4.203 0.505 8.394 0.922 12.573 0.787 3.622 0.382 7.39 1.327 10.988 0.376 4.631 0.61 9.292 0.634 13.947 1.039 3.399 0.593 6.962 0.98 10.46-0.012 2.424 0.869 4.737 0.963 7.155 0.288 3.739 0.135 7.525 0.98 11.206 0.352 4.919 0.164 9.908 1.145 14.769 0.252 1.503 0.141 3.041 0.182 4.584-0.053 3.17 1.438 6.158 1.174 9.363-0.176 4.15 0.423 8.271 1.027 12.374 0.335 3.868 0.475 7.754 0.74 11.634 0.798 3.064 0.663 6.257 0.945 9.404 0.012 2.994 0.886 5.893 0.957 8.893 0.358 5.077-0.44 10.313 0.974 15.274 0.088 0.769 0.088 1.561 0 2.366-1.203 0.487-1.444-1.068-1.702-1.832-2.741-10.824-6.75-21.278-9.715-32.026-3.052-7.907-4.661-16.318-8.177-24.049-2.248-6.304-4.766-12.509-6.228-19.054-0.969-4.59-3.052-8.834-4.197-13.366-1.649-5.16-3.545-10.237-5.107-15.42-0.869-3.516-2.542-6.756-3.258-10.308-1.597-3.757-2.524-7.76-4.367-11.417-1.256-2.272-0.382-4.872 0.34-7.144 3.064-9.574 5.846-19.236 8.828-28.833 3.651-9.973 5.177-20.58 8.658-30.606 2.636-6.551 3.962-13.513 5.811-20.304 1.092 1.297 1.192 3.005 1.221 4.631 0.505 3.698 0.493 7.455 0.998 11.159 0.828 4.279 0.475 8.676 1.104 12.996 0.87 5.002 0.652 10.115 1.245 15.157zm50.053-435.82c-2.242 1.409-4.907 1.837-7.408 2.571-5.976 1.268-11.787 3.434-17.897 3.915-1.785 0.522-3.575 1.133-5.465 0.963-1.221-4.273 0.111-8.77-0.992-13.055-0.452-5.841-1.802-11.57-2.037-17.428-1.796-10.583-3.135-21.231-5.025-31.797-0.387-6.117-1.115-12.221-2.448-18.203-0.61-6.246-2.037-12.362-2.641-18.602-1.561-8.206-2.313-16.536-3.945-24.724-0.522-2.724-0.763-5.483-1.309-8.194-5.999-0.393-12.022 0.182-18.015-0.194-0.681-1.374 1.532-1.397 2.383-1.591 4.22 0.217 8.277-0.957 12.374-1.755 4.643-1.303 9.456-1.961 14.017-3.551 1.837-0.757 3.827-0.986 5.776-1.28 4.144 11.552 7.103 23.468 10.748 35.173 2.706 7.044 4.355 14.417 6.692 21.584 1.098 3.258 1.655 6.692 2.953 9.891 1.151 2.953 1.532 6.128 2.688 9.081 1.021 2.547 1.18 5.318 1.972 7.936 1.462 5.899 3.722 11.587 4.802 17.58 2.266 9.245 4.614 18.467 6.656 27.765-1.466 1.132-2.558 2.635-3.879 3.915zm73.245-35.866c-1.315 1.485-3.135 2.395-4.79 3.44-1.286 0.71-2.448 1.796-3.998 1.826-1.696-3.346-2.565-7.097-4.807-10.149-1.186-1.556-1.491-3.534-2.442-5.207-1.514-2.454-2.366-5.248-4.074-7.584-1.297-3.41-3.481-6.363-4.995-9.674-2.043-3.182-3.786-6.539-5.406-9.955-3.522-5.782-6.31-11.975-9.644-17.868-1.949-3.269-3.27-6.856-5.183-10.131-2.019-2.982-3.352-6.351-5.365-9.339-1.831-2.835-3.352-5.858-4.584-8.993-1.086-1.825-2.254-3.604-3.105-5.553-1.544-3.322-3.745-6.293-5.148-9.68-1.55-2.735-3.146-5.453-4.408-8.335-0.646-1.162-1.233-2.8-2.688-3.064-5.33 0.704-9.973 4.133-15.356 4.491 1.567-2.013 4.132-2.706 6.234-3.997 3.099-1.949 6.281-3.757 9.233-5.929 1.614-0.945 3.557-2.559 5.506-1.567 2.935 4.232 5.729 8.611 7.813 13.342 1.109 2.665 3.176 4.778 4.379 7.402 5.647 9.75 11.529 19.377 17.322 29.05 1.532 3.135 4.056 5.723 4.995 9.134 5.67 9.363 11.699 18.514 17.187 27.988 3.281 5.148 6.692 10.231 9.668 15.573 1.867 3.158 4.25 6.017 5.776 9.38-0.57 1.842-1.416 3.597-2.12 5.399zm15.039-13.26c-0.61 1.608-2.5 1.908-3.78 2.8-2.195 1.074-3.898 3.363-6.521 3.34-1.655-2.319-3.281-4.661-4.86-7.026-2.289-4.614-5.336-8.781-8.001-13.178-1.708-2.454-2.947-5.195-4.784-7.56-2.618-4.919-5.899-9.439-8.476-14.381-3.187-5.13-6.322-10.296-9.116-15.649-3.011-3.81-5.095-8.2-7.578-12.333-1.162-3.293-3.792-5.735-5.218-8.893-2.471-3.669-4.191-7.778-6.733-11.399-0.288-0.587-0.499-1.192-0.628-1.814 6.075 5.048 9.691 12.198 14.963 17.962 1.96 2.184 3.205 4.931 5.436 6.891 3.164 4.608 7.279 8.464 10.401 13.108 2.131 3.099 4.749 5.817 6.991 8.84 7.114 9.351 13.97 18.878 21.12 28.199 2.072 1.743 2.859 4.461 4.731 6.386 1.031 1.344 2.675 2.817 2.053 4.707zm1.403-5.183c-2.019-2.694-4.203-5.271-6.046-8.089-3.745-4.303-6.868-9.104-10.583-13.436-6.568-9.046-13.372-17.921-20.134-26.814-3.293-3.446-5.788-7.513-8.911-11.094-1.873-2.776-4.491-4.913-6.404-7.643-2.254-2.559-3.475-5.829-5.893-8.253-1.902-1.867-3.064-4.297-4.89-6.216-2.43-2.553-4.332-5.524-6.428-8.341-2.988-3.645-5.987-7.314-8.828-11.077 0.106-2.483 1.098-6.803 4.414-6.269 3.821 4.332 6.557 9.509 10.331 13.894 4.332 5.999 9.04 11.74 13.272 17.821 1.843 2.125 3.71 4.256 5.036 6.768 3.123 4.444 6.527 8.693 9.715 13.102 1.503 2.189 2.894 4.467 4.625 6.492 1.867 2.143 2.794 4.937 4.766 6.991 1.479 1.514 2.319 3.504 3.686 5.113 1.638 1.949 3.023 4.097 4.42 6.228 1.567 2.119 3.628 3.886 4.837 6.275 1.55 3.005 3.44 5.84 5.641 8.417 2.037 2.342 3.252 5.265 5.283 7.625 2.319 3.305 4.937 6.551 6.246 10.425-1.649 0.141-3.181-0.61-4.155-1.919zm45.075-84.421c6e-3 6.85-0.023 13.7 0.024 20.557 0.1 1.984-0.798 3.857-0.681 5.852 0.023 1.826-0.188 3.639-0.452 5.447-2.178-0.593-3.469-2.553-5.201-3.821-3.698-3.563-7.878-6.609-11.253-10.495-6.058-5.078-11.705-10.701-17.909-15.555-1.779-2.542-4.52-4.091-6.721-6.204-4.485-3.915-9.028-7.766-13.407-11.799-3.968-4.091-8.922-7.091-12.732-11.341-3.598-3.675-7.684-6.821-11.44-10.319-3.727-2.976-6.95-6.715-11.123-9.057-2.958 1.198-4.907 4.039-7.93 5.16 2.941-4.672 7.396-8.147 10.519-12.691 2.647-3.058 5.077-6.293 7.431-9.58 2.794 1.021 5.089 2.982 7.69 4.391 2.606 1.415 4.778 3.457 7.32 4.984 4.414 2.512 8.417 5.676 12.697 8.412 4.884 2.853 9.762 5.794 14.199 9.298 4.872 3.094 9.721 6.24 14.364 9.685 5.524 3.692 11.135 7.255 16.594 11.041 2.536 1.955 5.553 3.34 7.743 5.705 0.632 3.368 0.092 6.896 0.268 10.33zm7.102-99.759c3.017 6e-3 5.981 0.704 8.881 1.485 1.872 0.364 3.786 0.704 5.494 1.614 0.082 0.223 0.235 0.663 0.317 0.886-4.684-0.041-9.345 0.428-14.011 0.616-1.426-1.038-0.51-3.111-0.681-4.601zm23.979 112.07c-0.792 2.917-1.38 6.058-3.211 8.535-2.26 2.841-4.127 5.987-6.645 8.617-1.515 1.831-2.577 4.015-4.344 5.641-2.366 2.154-3.727 5.177-6.246 7.197-0.763 0.769-1.943 0.458-2.894 0.599-0.205-3.545-0.059-7.085 0.029-10.625-0.223-8.218-0.205-16.448 6e-3 -24.665 0.182-3.868-0.376-7.783 0.487-11.599 5.236 2.178 9.386 6.181 14.229 9.04 2.454 1.385 4.52 3.334 6.868 4.896 0.735 0.632 2.097 1.143 1.721 2.364zm41.412-87.685c-1.004 2.201-0.839 4.708-1.785 6.932-0.904 4.485-2.688 8.723-3.962 13.113-1.315 3.616-2.084 7.461-3.98 10.842-2.143-0.199-3.816-1.62-5.647-2.571-3.099-1.415-5.946-3.375-9.239-4.338-5.571-1.779-10.613-4.813-16.136-6.709-7.525-3.234-15.221-6.105-22.945-8.817-2.53-1.121-0.775-4.338-1.209-6.404-0.875-3.27-0.481-6.657-0.552-9.991 0.699-0.54 1.35-1.35 2.354-1.192 2.178 0.023 4.367-0.041 6.504-0.522 3.868-0.188 7.766-0.106 11.611-0.693 1.561-0.376 3.146-0.693 4.772-0.581 3.311 0.188 6.58-0.387 9.867-0.728 3.316-0.74 6.727-0.346 10.096-0.44 6.698-0.475 13.014 2.313 19.324 4.15 0.029 1.538-0.088 3.17 0.734 4.555 0.575 1.034 0.71 2.296 0.193 3.394zm6.639-70.21c-1.579 0.029-3.146-0.088-4.69-0.364-2.219-0.387-4.496-6e-3 -6.703-0.464-2.994-0.669-6.081-0.153-9.098-0.511-7.015-0.681-14.059-0.282-21.079-0.464-4.449-0.939-9.004-0.376-13.513-0.628-3.563-0.223-7.138 0.223-10.689-0.182-8.729-0.681-17.492-0.07-26.227-0.399-4.08-0.957-8.294-0.241-12.427-0.681-8.776-0.751-17.592-0.182-26.379-0.54-1.156-0.088-1.362 1.139-1.597 1.99-0.411 1.738-0.74 3.499-1.374 5.177-0.428 0-1.286 0.012-1.714 0.018-0.822-4.244-0.135-8.599-0.399-12.89-0.317-1.831 1.878-2.489 3.317-2.389 7.648 0.135 15.268-0.71 22.922-0.558 5.471-0.065 10.994 0.358 16.406-0.616 17.804 0.141 35.607-0.147 53.393-0.669 4.074-0.839 8.247-0.399 12.374-0.493 7.801 0.17 15.526-1.726 23.327-1.074 1.391 1.438 2.542 3.117 3.745 4.714 0.159 1.749 0.569 3.446 1.027 5.142-0.399 1.93-0.692 3.891-0.622 5.881zm48.715-41.788c-1.303 1.737-1.984 3.839-3.217 5.617-3.035 4.303-4.995 9.269-8.212 13.454-1.726 2.142-2.448 4.878-4.25 6.956-1.485 1.767-2.272 3.962-3.528 5.87-2.16 3.193-3.598 6.839-6.046 9.85-4.649 0.217-9.28-0.387-13.923-0.182-1.902 0.323-2.395-1.878-3.704-2.641-0.969-0.035-1.914 0.135-2.853 0.258-0.023-4.021-0.634-7.977-1.151-11.939 1.696-0.974 3.416-1.925 5.201-2.735-0.076-0.54-0.153-1.08-0.211-1.608-1.779-0.487-3.61-0.969-5.125-2.049-0.646-1.321-0.258-2.906-0.346-4.32 0.141-1.949-0.757-3.768-0.698-5.705 1.755-0.957 3.264-2.283 4.649-3.71-2.23-1.761-6.322-2.647-6.322-6.087 1.338-0.317 2.653-0.863 4.056-0.88 10.525-0.358 20.78-3.205 31.263-3.874 4.508-1.074 9.169-0.875 13.718-1.714 1.045-0.241 2.119-0.288 3.205-0.264-0.07 2.146-1.268 4.024-2.506 5.703zm366.02 233.87c1.725-0.962 0.094 1.949 0 0z"/>
	<path d="m1135.8 991c0.587-0.164 1.444-0.886 1.961-0.17 1.826 2.101 3.299 4.49 5.224 6.527 1.127 1.303 2.459 2.506 3.058 4.179-0.452-0.041-1.344-0.123-1.796-0.17-2.935-3.363-5.483-7.038-8.447-10.366z"/>
</svg>